<svg width="160" height="160" viewBox="0 0 160 160" fill="none" xmlns="http://www.w3.org/2000/svg">
<g clip-path="url(#clip0_1738_5538)">
<path d="M0 8C0 3.58172 3.58172 0 8 0H152C156.418 0 160 3.58172 160 8V152C160 156.418 156.418 160 152 160H8C3.58172 160 0 156.418 0 152V8Z" fill="#1C1C1C"/>
<path d="M8 0.5H152C156.142 0.500001 159.5 3.85787 159.5 8V152C159.5 156.142 156.142 159.5 152 159.5H8C3.85787 159.5 0.5 156.142 0.5 152V8C0.500001 3.85787 3.85787 0.5 8 0.5Z" stroke="white" stroke-opacity="0.24"/>
<path d="M8 13.5C8 10.4624 10.4624 8 13.5 8H146.5C149.538 8 152 10.4624 152 13.5V13.5C152 16.5376 149.538 19 146.5 19H13.5C10.4624 19 8 16.5376 8 13.5V13.5Z" fill="white" fill-opacity="0.48"/>
<path d="M8 35C8 30.5817 11.5817 27 16 27H45.3333C49.7516 27 53.3333 30.5817 53.3333 35V125C53.3333 129.418 49.7516 133 45.3333 133H16C11.5817 133 8 129.418 8 125V35Z" fill="#1C1C1C"/>
<path d="M16 27.5H45.333C49.4751 27.5 52.833 30.8579 52.833 35V125C52.833 129.142 49.4751 132.5 45.333 132.5H16C11.8579 132.5 8.5 129.142 8.5 125V35C8.5 30.8579 11.8579 27.5 16 27.5Z" stroke="white" stroke-opacity="0.24"/>
<path d="M57.3333 35C57.3333 30.5817 60.9151 27 65.3333 27H94.6667C99.0849 27 102.667 30.5817 102.667 35V49C102.667 53.4183 99.0849 57 94.6667 57H65.3333C60.915 57 57.3333 53.4183 57.3333 49V35Z" fill="#1C1C1C"/>
<path d="M65.3333 27.5H94.6663C98.8085 27.5 102.166 30.8579 102.166 35V49C102.166 53.1421 98.8085 56.5 94.6663 56.5H65.3333C61.1912 56.5 57.8333 53.1421 57.8333 49V35C57.8333 30.8579 61.1912 27.5 65.3333 27.5Z" stroke="white" stroke-opacity="0.24"/>
<path d="M106.667 35C106.667 30.5817 110.248 27 114.667 27H144C148.418 27 152 30.5817 152 35V87C152 91.4183 148.418 95 144 95H114.667C110.248 95 106.667 91.4183 106.667 87V35Z" fill="#1C1C1C"/>
<path d="M114.667 27.5H144C148.142 27.5 151.5 30.8579 151.5 35V87C151.5 91.1421 148.142 94.5 144 94.5H114.667C110.525 94.5 107.167 91.1421 107.167 87V35C107.167 30.8579 110.525 27.5 114.667 27.5Z" stroke="white" stroke-opacity="0.24"/>
<path d="M84.3594 82.0156H87.7344C87.9219 81.1406 88.0156 80.4688 88.0156 80C88.0156 79.5312 87.9219 78.8594 87.7344 77.9844H84.3594C84.4531 78.6406 84.5 79.3125 84.5 80C84.5 80.6875 84.4531 81.3594 84.3594 82.0156ZM82.5781 87.5469C83.3594 87.2969 84.1719 86.8281 85.0156 86.1406C85.8594 85.4219 86.5 84.7031 86.9375 83.9844H83.9844C83.6719 85.2344 83.2031 86.4219 82.5781 87.5469ZM82.3438 82.0156C82.4375 81.3594 82.4844 80.6875 82.4844 80C82.4844 79.3125 82.4375 78.6406 82.3438 77.9844H77.6562C77.5625 78.6406 77.5156 79.3125 77.5156 80C77.5156 80.6875 77.5625 81.3594 77.6562 82.0156H82.3438ZM80 87.9688C80.875 86.6875 81.5156 85.3594 81.9219 83.9844H78.0781C78.4844 85.3594 79.125 86.6875 80 87.9688ZM76.0156 76.0156C76.3906 74.6719 76.8594 73.4844 77.4219 72.4531C76.6406 72.7031 75.8125 73.1875 74.9375 73.9062C74.0938 74.5938 73.4688 75.2969 73.0625 76.0156H76.0156ZM73.0625 83.9844C73.4688 84.7031 74.0938 85.4219 74.9375 86.1406C75.8125 86.8281 76.6406 87.2969 77.4219 87.5469C76.7969 86.4219 76.3281 85.2344 76.0156 83.9844H73.0625ZM72.2656 82.0156H75.6406C75.5469 81.3594 75.5 80.6875 75.5 80C75.5 79.3125 75.5469 78.6406 75.6406 77.9844H72.2656C72.0781 78.8594 71.9844 79.5312 71.9844 80C71.9844 80.4688 72.0781 81.1406 72.2656 82.0156ZM80 72.0312C79.125 73.3125 78.4844 74.6406 78.0781 76.0156H81.9219C81.5156 74.6406 80.875 73.3125 80 72.0312ZM86.9375 76.0156C86.5 75.2969 85.8594 74.5938 85.0156 73.9062C84.1719 73.1875 83.3594 72.7031 82.5781 72.4531C83.1406 73.4844 83.6094 74.6719 83.9844 76.0156H86.9375ZM72.9219 72.9688C74.8906 71 77.25 70.0156 80 70.0156C82.75 70.0156 85.0938 71 87.0312 72.9688C89 74.9062 89.9844 77.25 89.9844 80C89.9844 82.75 89 85.1094 87.0312 87.0781C85.0938 89.0156 82.75 89.9844 80 89.9844C77.25 89.9844 74.8906 89.0156 72.9219 87.0781C70.9844 85.1094 70.0156 82.75 70.0156 80C70.0156 77.25 70.9844 74.9062 72.9219 72.9688Z" fill="#03A9F4"/>
</g>
<defs>
<clipPath id="clip0_1738_5538">
<rect width="160" height="160" fill="white"/>
</clipPath>
</defs>
</svg>
