<svg width="160" height="72" viewBox="0 0 160 72" fill="none" xmlns="http://www.w3.org/2000/svg">
<g clip-path="url(#clip0_1738_5536)">
<path d="M0 4C0 1.79086 1.79086 0 4 0H28C30.2091 0 32 1.79086 32 4V4C32 6.20914 30.2091 8 28 8H4C1.79086 8 0 6.20914 0 4V4Z" fill="white" fill-opacity="0.48"/>
<path d="M0 20C0 15.5817 3.58172 12 8 12H42.6667C47.0849 12 50.6667 15.5817 50.6667 20V64C50.6667 68.4183 47.0849 72 42.6667 72H8.00001C3.58173 72 0 68.4183 0 64V20Z" fill="#1C1C1C"/>
<path d="M8 12.5H42.667C46.809 12.5002 50.167 15.858 50.167 20V64C50.167 68.142 46.809 71.4998 42.667 71.5H8C3.85787 71.5 0.5 68.1421 0.5 64V20L0.509766 19.6143C0.710536 15.6514 3.98724 12.5 8 12.5Z" stroke="white" stroke-opacity="0.24"/>
<path d="M32.3177 42.9844H26.3177V48.9844H24.349V42.9844H18.349V41.0156H24.349V35.0156H26.3177V41.0156H32.3177V42.9844Z" fill="#03A9F4"/>
</g>
<defs>
<clipPath id="clip0_1738_5536">
<rect width="160" height="72" fill="white"/>
</clipPath>
</defs>
</svg>
