<svg width="160" height="160" viewBox="0 0 160 160" fill="none" xmlns="http://www.w3.org/2000/svg">
<g clip-path="url(#clip0_1738_5534)">
<path d="M0 8C0 3.58172 3.58172 0 8 0H42.6667C47.0849 0 50.6667 3.58172 50.6667 8V64C50.6667 68.4183 47.0849 72 42.6667 72H8.00001C3.58173 72 0 68.4183 0 64V8Z" fill="#1C1C1C"/>
<path d="M8 0.5H42.667C46.809 0.500178 50.167 3.85798 50.167 8V64C50.167 68.142 46.809 71.4998 42.667 71.5H8C3.85787 71.5 0.5 68.1421 0.5 64V8C0.5 3.85786 3.85786 0.5 8 0.5Z" stroke="white" stroke-opacity="0.24"/>
<path d="M8 12C8 9.79086 9.79086 8 12 8H38.6667C40.8758 8 42.6667 9.79086 42.6667 12V12C42.6667 14.2091 40.8758 16 38.6667 16H12C9.79086 16 8 14.2091 8 12V12Z" fill="white" fill-opacity="0.48"/>
<path d="M8 27C8 25.3431 9.34315 24 11 24H27.6667C29.3235 24 30.6667 25.3431 30.6667 27V29C30.6667 30.6569 29.3235 32 27.6667 32H11C9.34314 32 8 30.6569 8 29V27Z" fill="white" fill-opacity="0.24"/>
<path d="M34.6667 28C34.6667 25.7909 36.4575 24 38.6667 24V24C40.8758 24 42.6667 25.7909 42.6667 28V28C42.6667 30.2091 40.8758 32 38.6667 32V32C36.4575 32 34.6667 30.2091 34.6667 28V28Z" fill="white" fill-opacity="0.24"/>
<path d="M8 43C8 41.3431 9.34315 40 11 40H27.6667C29.3235 40 30.6667 41.3431 30.6667 43V45C30.6667 46.6569 29.3235 48 27.6667 48H11C9.34314 48 8 46.6569 8 45V43Z" fill="white" fill-opacity="0.24"/>
<path d="M34.6667 44C34.6667 41.7909 36.4575 40 38.6667 40V40C40.8758 40 42.6667 41.7909 42.6667 44V44C42.6667 46.2091 40.8758 48 38.6667 48V48C36.4575 48 34.6667 46.2091 34.6667 44V44Z" fill="white" fill-opacity="0.24"/>
<path d="M8 59C8 57.3431 9.34315 56 11 56H27.6667C29.3235 56 30.6667 57.3431 30.6667 59V61C30.6667 62.6569 29.3235 64 27.6667 64H11C9.34314 64 8 62.6569 8 61V59Z" fill="white" fill-opacity="0.24"/>
<path d="M34.6667 60C34.6667 57.7909 36.4575 56 38.6667 56V56C40.8758 56 42.6667 57.7909 42.6667 60V60C42.6667 62.2091 40.8758 64 38.6667 64V64C36.4575 64 34.6667 62.2091 34.6667 60V60Z" fill="white" fill-opacity="0.24"/>
<path d="M0 84C0 79.5817 3.58172 76 8 76H42.6667C47.0849 76 50.6667 79.5817 50.6667 84V124C50.6667 128.418 47.0849 132 42.6667 132H8.00001C3.58173 132 0 128.418 0 124V84Z" fill="#1C1C1C"/>
<path d="M8 76.5H42.667C46.809 76.5002 50.167 79.858 50.167 84V124C50.167 128.142 46.809 131.5 42.667 131.5H8C3.85787 131.5 0.5 128.142 0.5 124V84C0.5 79.8579 3.85786 76.5 8 76.5Z" stroke="white" stroke-opacity="0.24"/>
<path d="M8 88C8 85.7909 9.79086 84 12 84H38.6667C40.8758 84 42.6667 85.7909 42.6667 88V88C42.6667 90.2091 40.8758 92 38.6667 92H12C9.79086 92 8 90.2091 8 88V88Z" fill="white" fill-opacity="0.48"/>
<path d="M8 103C8 101.343 9.34315 100 11 100H27.6667C29.3235 100 30.6667 101.343 30.6667 103V105C30.6667 106.657 29.3235 108 27.6667 108H11C9.34314 108 8 106.657 8 105V103Z" fill="white" fill-opacity="0.24"/>
<path d="M34.6667 104C34.6667 101.791 36.4575 100 38.6667 100V100C40.8758 100 42.6667 101.791 42.6667 104V104C42.6667 106.209 40.8758 108 38.6667 108V108C36.4575 108 34.6667 106.209 34.6667 104V104Z" fill="white" fill-opacity="0.24"/>
<path d="M8 119C8 117.343 9.34315 116 11 116H27.6667C29.3235 116 30.6667 117.343 30.6667 119V121C30.6667 122.657 29.3235 124 27.6667 124H11C9.34314 124 8 122.657 8 121V119Z" fill="white" fill-opacity="0.24"/>
<path d="M34.6667 120C34.6667 117.791 36.4575 116 38.6667 116V116C40.8758 116 42.6667 117.791 42.6667 120V120C42.6667 122.209 40.8758 124 38.6667 124V124C36.4575 124 34.6667 122.209 34.6667 120V120Z" fill="white" fill-opacity="0.24"/>
<path d="M0 144C0 139.582 3.58172 136 8 136H42.6667C47.0849 136 50.6667 139.582 50.6667 144V152C50.6667 156.418 47.0849 160 42.6667 160H8.00001C3.58173 160 0 156.418 0 152V144Z" fill="#1C1C1C"/>
<path d="M8 136.5H42.667C46.809 136.5 50.167 139.858 50.167 144V152C50.167 156.142 46.809 159.5 42.667 159.5H8C3.85787 159.5 0.5 156.142 0.5 152V144C0.5 139.858 3.85786 136.5 8 136.5Z" stroke="white" stroke-opacity="0.24"/>
<path d="M8 148C8 145.791 9.79086 144 12 144H38.6667C40.8758 144 42.6667 145.791 42.6667 148V148C42.6667 150.209 40.8758 152 38.6667 152H12C9.79086 152 8 150.209 8 148V148Z" fill="white" fill-opacity="0.48"/>
<path d="M54.6667 8C54.6667 3.58172 58.2484 0 62.6667 0H97.3333C101.752 0 105.333 3.58172 105.333 8V48C105.333 52.4183 101.752 56 97.3334 56H62.6667C58.2484 56 54.6667 52.4183 54.6667 48V8Z" fill="#1C1C1C"/>
<path d="M62.6667 0.5H97.3337C101.476 0.50018 104.834 3.85798 104.834 8V48C104.834 52.142 101.476 55.4998 97.3337 55.5H62.6667C58.5246 55.5 55.1667 52.1421 55.1667 48V8C55.1667 3.85786 58.5246 0.5 62.6667 0.5Z" stroke="white" stroke-opacity="0.24"/>
<path d="M62.6667 12C62.6667 9.79086 64.4575 8 66.6667 8H93.3334C95.5425 8 97.3334 9.79086 97.3334 12V12C97.3334 14.2091 95.5425 16 93.3334 16H66.6667C64.4576 16 62.6667 14.2091 62.6667 12V12Z" fill="white" fill-opacity="0.48"/>
<path d="M62.6667 27C62.6667 25.3431 64.0098 24 65.6667 24H82.3334C83.9902 24 85.3334 25.3431 85.3334 27V29C85.3334 30.6569 83.9902 32 82.3334 32H65.6667C64.0098 32 62.6667 30.6569 62.6667 29V27Z" fill="white" fill-opacity="0.24"/>
<path d="M89.3333 28C89.3333 25.7909 91.1242 24 93.3333 24V24C95.5425 24 97.3333 25.7909 97.3333 28V28C97.3333 30.2091 95.5425 32 93.3333 32V32C91.1242 32 89.3333 30.2091 89.3333 28V28Z" fill="white" fill-opacity="0.24"/>
<path d="M62.6667 43C62.6667 41.3431 64.0098 40 65.6667 40H82.3334C83.9902 40 85.3334 41.3431 85.3334 43V45C85.3334 46.6569 83.9902 48 82.3334 48H65.6667C64.0098 48 62.6667 46.6569 62.6667 45V43Z" fill="white" fill-opacity="0.24"/>
<path d="M89.3333 44C89.3333 41.7909 91.1242 40 93.3333 40V40C95.5425 40 97.3333 41.7909 97.3333 44V44C97.3333 46.2091 95.5425 48 93.3333 48V48C91.1242 48 89.3333 46.2091 89.3333 44V44Z" fill="white" fill-opacity="0.24"/>
<path d="M54.6667 68C54.6667 63.5817 58.2484 60 62.6667 60H97.3333C101.752 60 105.333 63.5817 105.333 68V76C105.333 80.4183 101.752 84 97.3334 84H62.6667C58.2484 84 54.6667 80.4183 54.6667 76V68Z" fill="#1C1C1C"/>
<path d="M62.6667 60.5H97.3337C101.476 60.5002 104.834 63.858 104.834 68V76C104.834 80.142 101.476 83.4998 97.3337 83.5H62.6667C58.5246 83.5 55.1667 80.1421 55.1667 76V68C55.1667 63.8579 58.5246 60.5 62.6667 60.5Z" stroke="white" stroke-opacity="0.24"/>
<path d="M62.6667 72C62.6667 69.7909 64.4575 68 66.6667 68H93.3334C95.5425 68 97.3334 69.7909 97.3334 72V72C97.3334 74.2091 95.5425 76 93.3334 76H66.6667C64.4576 76 62.6667 74.2091 62.6667 72V72Z" fill="white" fill-opacity="0.48"/>
<path d="M54.6667 96C54.6667 91.5817 58.2484 88 62.6667 88H97.3333C101.752 88 105.333 91.5817 105.333 96V136C105.333 140.418 101.752 144 97.3334 144H62.6667C58.2484 144 54.6667 140.418 54.6667 136V96Z" fill="#1C1C1C"/>
<path d="M62.6667 88.5H97.3337C101.476 88.5002 104.834 91.858 104.834 96V136C104.834 140.142 101.476 143.5 97.3337 143.5H62.6667C58.5246 143.5 55.1667 140.142 55.1667 136V96C55.1667 91.8579 58.5246 88.5 62.6667 88.5Z" stroke="white" stroke-opacity="0.24"/>
<path d="M62.6667 100C62.6667 97.7909 64.4575 96 66.6667 96H93.3334C95.5425 96 97.3334 97.7909 97.3334 100V100C97.3334 102.209 95.5425 104 93.3334 104H66.6667C64.4576 104 62.6667 102.209 62.6667 100V100Z" fill="white" fill-opacity="0.48"/>
<path d="M62.6667 115C62.6667 113.343 64.0098 112 65.6667 112H82.3334C83.9902 112 85.3334 113.343 85.3334 115V117C85.3334 118.657 83.9902 120 82.3334 120H65.6667C64.0098 120 62.6667 118.657 62.6667 117V115Z" fill="white" fill-opacity="0.24"/>
<path d="M89.3333 116C89.3333 113.791 91.1242 112 93.3333 112V112C95.5425 112 97.3333 113.791 97.3333 116V116C97.3333 118.209 95.5425 120 93.3333 120V120C91.1242 120 89.3333 118.209 89.3333 116V116Z" fill="white" fill-opacity="0.24"/>
<path d="M62.6667 131C62.6667 129.343 64.0098 128 65.6667 128H82.3334C83.9902 128 85.3334 129.343 85.3334 131V133C85.3334 134.657 83.9902 136 82.3334 136H65.6667C64.0098 136 62.6667 134.657 62.6667 133V131Z" fill="white" fill-opacity="0.24"/>
<path d="M89.3333 132C89.3333 129.791 91.1242 128 93.3333 128V128C95.5425 128 97.3333 129.791 97.3333 132V132C97.3333 134.209 95.5425 136 93.3333 136V136C91.1242 136 89.3333 134.209 89.3333 132V132Z" fill="white" fill-opacity="0.24"/>
<path d="M109.333 8C109.333 3.58172 112.915 0 117.333 0H152C156.418 0 160 3.58172 160 8V112C160 116.418 156.418 120 152 120H117.333C112.915 120 109.333 116.418 109.333 112V8Z" fill="#1C1C1C"/>
<path d="M117.333 0.5H152C156.142 0.50018 159.5 3.85798 159.5 8V112C159.5 116.142 156.142 119.5 152 119.5H117.333C113.191 119.5 109.833 116.142 109.833 112V8C109.833 3.85786 113.191 0.5 117.333 0.5Z" stroke="white" stroke-opacity="0.24"/>
<path d="M117.333 12C117.333 9.79086 119.124 8 121.333 8H148C150.209 8 152 9.79086 152 12V12C152 14.2091 150.209 16 148 16H121.333C119.124 16 117.333 14.2091 117.333 12V12Z" fill="white" fill-opacity="0.48"/>
<path d="M117.333 27C117.333 25.3431 118.676 24 120.333 24H137C138.657 24 140 25.3431 140 27V29C140 30.6569 138.657 32 137 32H120.333C118.676 32 117.333 30.6569 117.333 29V27Z" fill="white" fill-opacity="0.24"/>
<path d="M144 28C144 25.7909 145.791 24 148 24V24C150.209 24 152 25.7909 152 28V28C152 30.2091 150.209 32 148 32V32C145.791 32 144 30.2091 144 28V28Z" fill="white" fill-opacity="0.24"/>
<path d="M117.333 43C117.333 41.3431 118.676 40 120.333 40H137C138.657 40 140 41.3431 140 43V45C140 46.6569 138.657 48 137 48H120.333C118.676 48 117.333 46.6569 117.333 45V43Z" fill="white" fill-opacity="0.24"/>
<path d="M144 44C144 41.7909 145.791 40 148 40V40C150.209 40 152 41.7909 152 44V44C152 46.2091 150.209 48 148 48V48C145.791 48 144 46.2091 144 44V44Z" fill="white" fill-opacity="0.24"/>
<path d="M117.333 59C117.333 57.3431 118.676 56 120.333 56H137C138.657 56 140 57.3431 140 59V61C140 62.6569 138.657 64 137 64H120.333C118.676 64 117.333 62.6569 117.333 61V59Z" fill="white" fill-opacity="0.24"/>
<path d="M144 60C144 57.7909 145.791 56 148 56V56C150.209 56 152 57.7909 152 60V60C152 62.2091 150.209 64 148 64V64C145.791 64 144 62.2091 144 60V60Z" fill="white" fill-opacity="0.24"/>
<path d="M117.333 75C117.333 73.3431 118.676 72 120.333 72H137C138.657 72 140 73.3431 140 75V77C140 78.6569 138.657 80 137 80H120.333C118.676 80 117.333 78.6569 117.333 77V75Z" fill="white" fill-opacity="0.24"/>
<path d="M144 76C144 73.7909 145.791 72 148 72V72C150.209 72 152 73.7909 152 76V76C152 78.2091 150.209 80 148 80V80C145.791 80 144 78.2091 144 76V76Z" fill="white" fill-opacity="0.24"/>
<path d="M117.333 91C117.333 89.3431 118.676 88 120.333 88H137C138.657 88 140 89.3431 140 91V93C140 94.6569 138.657 96 137 96H120.333C118.676 96 117.333 94.6569 117.333 93V91Z" fill="white" fill-opacity="0.24"/>
<path d="M144 92C144 89.7909 145.791 88 148 88V88C150.209 88 152 89.7909 152 92V92C152 94.2091 150.209 96 148 96V96C145.791 96 144 94.2091 144 92V92Z" fill="white" fill-opacity="0.24"/>
<path d="M117.333 107C117.333 105.343 118.676 104 120.333 104H137C138.657 104 140 105.343 140 107V109C140 110.657 138.657 112 137 112H120.333C118.676 112 117.333 110.657 117.333 109V107Z" fill="white" fill-opacity="0.24"/>
<path d="M144 108C144 105.791 145.791 104 148 104V104C150.209 104 152 105.791 152 108V108C152 110.209 150.209 112 148 112V112C145.791 112 144 110.209 144 108V108Z" fill="white" fill-opacity="0.24"/>
<path d="M109.333 132C109.333 127.582 112.915 124 117.333 124H152C156.418 124 160 127.582 160 132V140C160 144.418 156.418 148 152 148H117.333C112.915 148 109.333 144.418 109.333 140V132Z" fill="#1C1C1C"/>
<path d="M117.333 124.5H152C156.142 124.5 159.5 127.858 159.5 132V140C159.5 144.142 156.142 147.5 152 147.5H117.333C113.191 147.5 109.833 144.142 109.833 140V132C109.833 127.858 113.191 124.5 117.333 124.5Z" stroke="white" stroke-opacity="0.24"/>
<path d="M117.333 136C117.333 133.791 119.124 132 121.333 132H148C150.209 132 152 133.791 152 136V136C152 138.209 150.209 140 148 140H121.333C119.124 140 117.333 138.209 117.333 136V136Z" fill="white" fill-opacity="0.48"/>
</g>
<defs>
<clipPath id="clip0_1738_5534">
<rect width="160" height="160" fill="white"/>
</clipPath>
</defs>
</svg>
