<svg width="160" height="160" viewBox="0 0 160 160" fill="none" xmlns="http://www.w3.org/2000/svg">
<g clip-path="url(#clip0_1738_5540)">
<path d="M0 8C0 3.58172 3.58172 0 8 0H152C156.418 0 160 3.58172 160 8V152C160 156.418 156.418 160 152 160H8C3.58172 160 0 156.418 0 152V8Z" fill="#1C1C1C"/>
<path d="M8 0.5H152C156.142 0.500001 159.5 3.85787 159.5 8V152C159.5 156.142 156.142 159.5 152 159.5H8C3.85787 159.5 0.5 156.142 0.5 152V8C0.500001 3.85787 3.85787 0.5 8 0.5Z" stroke="white" stroke-opacity="0.24"/>
<path d="M83 86.9844V75.125L77 73.0156V84.875L83 86.9844ZM88.4844 71C88.8281 71 89 71.1719 89 71.5156V86.6094C89 86.8594 88.875 87.0156 88.625 87.0781L83 89L77 86.8906L71.6562 88.9531L71.5156 89C71.1719 89 71 88.8281 71 88.4844V73.3906C71 73.1406 71.125 72.9844 71.375 72.9219L77 71L83 73.1094L88.3438 71.0469L88.4844 71Z" fill="#03A9F4"/>
<path d="M148 77.0508L139.288 85.8983M139.288 85.8983L116.852 108.684C115.724 109.83 114.184 110.475 112.576 110.475H81.6939M139.288 85.8983V69.4322M21.1957 82.9492H12M21.1957 82.9492L32.3274 71.6441M21.1957 82.9492L44.427 106.542M81.6939 110.475V124.237M81.6939 110.475H54.5907M81.6939 138V124.237M81.6939 124.237H148M32.3274 71.6441L43.4591 60.339L54.5907 49.0339L70.4941 32.8828C74.2533 29.0651 79.3871 26.9153 84.7451 26.9153H128.641V26.9153C134.521 26.9153 139.288 31.6824 139.288 37.5629V37.7288V49.0339M32.3274 71.6441L24.8569 64.0572C22.5573 61.7218 22.5573 57.9732 24.8569 55.6377L57.9786 22M139.288 49.0339H126.313C124.706 49.0339 123.166 48.389 122.038 47.2436L116.057 41.1695M139.288 49.0339V69.4322M139.288 69.4322H126.313C124.706 69.4322 123.166 68.7873 122.038 67.6419L116.057 61.5678M54.5907 110.475V110.475C54.5907 107.488 52.17 105.068 49.184 105.068H49.0249C45.951 105.068 43.4591 107.56 43.4591 110.634V110.807C43.4591 113.881 45.951 116.373 49.0249 116.373V116.373C52.0988 116.373 54.5907 113.881 54.5907 110.807V110.475ZM44.427 115.39L22.1637 138" stroke="white" stroke-opacity="0.24" stroke-width="5" stroke-linecap="round"/>
<circle cx="41" cy="39" r="14" fill="white" fill-opacity="0.48"/>
<circle cx="89" cy="117" r="14" fill="white" fill-opacity="0.48"/>
<path d="M116 62.325C115.767 62.325 115.533 62.2833 115.3 62.2C115.067 62.1167 114.858 61.9917 114.675 61.825C113.592 60.825 112.633 59.85 111.8 58.9C110.967 57.95 110.267 57.0333 109.7 56.15C109.15 55.25 108.725 54.3917 108.425 53.575C108.142 52.7417 108 51.95 108 51.2C108 48.7 108.8 46.7083 110.4 45.225C112.017 43.7417 113.883 43 116 43C118.117 43 119.975 43.7417 121.575 45.225C123.192 46.7083 124 48.7 124 51.2C124 51.95 123.85 52.7417 123.55 53.575C123.267 54.3917 122.842 55.25 122.275 56.15C121.725 57.0333 121.033 57.95 120.2 58.9C119.367 59.85 118.408 60.825 117.325 61.825C117.142 61.9917 116.933 62.1167 116.7 62.2C116.467 62.2833 116.233 62.325 116 62.325Z" fill="white" fill-opacity="0.48"/>
</g>
<defs>
<clipPath id="clip0_1738_5540">
<rect width="160" height="160" fill="white"/>
</clipPath>
</defs>
</svg>
