<svg width="160" height="160" viewBox="0 0 160 160" fill="none" xmlns="http://www.w3.org/2000/svg">
<g clip-path="url(#clip0_1738_5532)">
<path d="M0 4C0 1.79086 1.79086 0 4 0H16C18.2091 0 20 1.79086 20 4V4C20 6.20914 18.2091 8 16 8H4C1.79086 8 0 6.20914 0 4V4Z" fill="white" fill-opacity="0.48"/>
<path d="M40 4C40 1.79086 41.7909 0 44 0V0C46.2091 0 48 1.79086 48 4V4C48 6.20914 46.2091 8 44 8V8C41.7909 8 40 6.20914 40 4V4Z" fill="white" fill-opacity="0.24"/>
<path d="M0 20C0 15.5817 3.58172 12 8 12H40C44.4183 12 48 15.5817 48 20V64C48 68.4183 44.4183 72 40 72H8C3.58172 72 0 68.4183 0 64V20Z" fill="#1C1C1C"/>
<path d="M8 12.5H40C44.1421 12.5 47.5 15.8579 47.5 20V64C47.5 68.1421 44.1421 71.5 40 71.5H8C3.85787 71.5 0.5 68.1421 0.5 64V20L0.509766 19.6143C0.704063 15.7792 3.77915 12.7041 7.61426 12.5098L8 12.5Z" stroke="white" stroke-opacity="0.24"/>
<path d="M18.9844 41.0156C18.9844 40.0781 18.7031 39.2656 18.1406 38.5781C17.5781 37.8594 16.8594 37.375 15.9844 37.125V36C15.9844 35.4375 16.125 34.9375 16.4062 34.5C16.6875 34.0312 17.0469 33.6719 17.4844 33.4219C17.9531 33.1406 18.4531 33 18.9844 33H29.0156C29.5469 33 30.0312 33.1406 30.4688 33.4219C30.9375 33.6719 31.3125 34.0312 31.5938 34.5C31.875 34.9375 32.0156 35.4375 32.0156 36V37.125C31.1406 37.375 30.4219 37.8594 29.8594 38.5781C29.2969 39.2656 29.0156 40.0781 29.0156 41.0156V42.9844H18.9844V41.0156ZM33 39C33.5625 39 34.0312 39.2031 34.4062 39.6094C34.8125 39.9844 35.0156 40.4531 35.0156 41.0156V45.9844C35.0156 46.5469 34.875 47.0625 34.5938 47.5312C34.3125 47.9688 33.9375 48.3281 33.4688 48.6094C33.0312 48.8594 32.5469 48.9844 32.0156 48.9844V50.0156C32.0156 50.2656 31.9062 50.5 31.6875 50.7188C31.5 50.9062 31.2656 51 30.9844 51C30.7344 51 30.5 50.9062 30.2812 50.7188C30.0938 50.5 30 50.2656 30 50.0156V48.9844H18V50.0156C18 50.2656 17.8906 50.5 17.6719 50.7188C17.4844 50.9062 17.2656 51 17.0156 51C16.7344 51 16.4844 50.9062 16.2656 50.7188C16.0781 50.5 15.9844 50.2656 15.9844 50.0156V48.9844C15.4531 48.9844 14.9531 48.8594 14.4844 48.6094C14.0469 48.3281 13.6875 47.9688 13.4062 47.5312C13.125 47.0625 12.9844 46.5469 12.9844 45.9844V41.0156C12.9844 40.4531 13.1719 39.9844 13.5469 39.6094C13.9531 39.2031 14.4375 39 15 39C15.5625 39 16.0312 39.2031 16.4062 39.6094C16.8125 39.9844 17.0156 40.4531 17.0156 41.0156V45H30.9844V41.0156C30.9844 40.4531 31.1719 39.9844 31.5469 39.6094C31.9531 39.2031 32.4375 39 33 39Z" fill="#03A9F4"/>
<path d="M56 4C56 1.79086 57.7909 0 60 0H72C74.2091 0 76 1.79086 76 4V4C76 6.20914 74.2091 8 72 8H60C57.7909 8 56 6.20914 56 4V4Z" fill="white" fill-opacity="0.48"/>
<path d="M96 4C96 1.79086 97.7909 0 100 0V0C102.209 0 104 1.79086 104 4V4C104 6.20914 102.209 8 100 8V8C97.7909 8 96 6.20914 96 4V4Z" fill="white" fill-opacity="0.24"/>
<path d="M56 20C56 15.5817 59.5817 12 64 12H96C100.418 12 104 15.5817 104 20V64C104 68.4183 100.418 72 96 72H64C59.5817 72 56 68.4183 56 64V20Z" fill="#1C1C1C"/>
<path d="M64 12.5H96C100.142 12.5 103.5 15.8579 103.5 20V64C103.5 68.1421 100.142 71.5 96 71.5H64C59.8579 71.5 56.5 68.1421 56.5 64V20L56.5098 19.6143C56.7041 15.7792 59.7792 12.7041 63.6143 12.5098L64 12.5Z" stroke="white" stroke-opacity="0.24"/>
<path d="M86 39.9844H89.9844V42H88.0156V50.0156H71.9844V42H70.0156V39.9844H74C73.4375 39.9844 72.9531 39.7969 72.5469 39.4219C72.1719 39.0156 71.9844 38.5469 71.9844 38.0156V33.9844H77.9844V38.0156C77.9844 38.5469 77.7812 39.0156 77.375 39.4219C77 39.7969 76.5469 39.9844 76.0156 39.9844H83.9844V36.9844C83.9844 36.7344 83.8906 36.5156 83.7031 36.3281C83.5156 36.1094 83.2812 36 83 36C82.7188 36 82.4844 36.1094 82.2969 36.3281C82.1094 36.5156 82.0156 36.7344 82.0156 36.9844H80C80 36.4531 80.125 35.9688 80.375 35.5312C80.6562 35.0625 81.0156 34.6875 81.4531 34.4062C81.9219 34.125 82.4375 33.9844 83 33.9844C83.5625 33.9844 84.0625 34.125 84.5 34.4062C84.9688 34.6875 85.3281 35.0625 85.5781 35.5312C85.8594 35.9688 86 36.4531 86 36.9844V39.9844ZM80.9844 48V42H79.0156V48H80.9844Z" fill="#03A9F4"/>
<path d="M112 4C112 1.79086 113.791 0 116 0H128C130.209 0 132 1.79086 132 4V4C132 6.20914 130.209 8 128 8H116C113.791 8 112 6.20914 112 4V4Z" fill="white" fill-opacity="0.48"/>
<path d="M152 4C152 1.79086 153.791 0 156 0V0C158.209 0 160 1.79086 160 4V4C160 6.20914 158.209 8 156 8V8C153.791 8 152 6.20914 152 4V4Z" fill="white" fill-opacity="0.24"/>
<path d="M112 20C112 15.5817 115.582 12 120 12H152C156.418 12 160 15.5817 160 20V64C160 68.4183 156.418 72 152 72H120C115.582 72 112 68.4183 112 64V20Z" fill="#1C1C1C"/>
<path d="M120 12.5H152C156.142 12.5 159.5 15.8579 159.5 20V64C159.5 68.1421 156.142 71.5 152 71.5H120C115.858 71.5 112.5 68.1421 112.5 64V20L112.51 19.6143C112.704 15.7792 115.779 12.7041 119.614 12.5098L120 12.5Z" stroke="white" stroke-opacity="0.24"/>
<path d="M142.984 36.9844C144.078 36.9844 145.016 37.3906 145.797 38.2031C146.609 38.9844 147.016 39.9219 147.016 41.0156V50.0156H145V47.0156H127V50.0156H124.984V35.0156H127V44.0156H135.016V36.9844H142.984ZM133.094 42.0938C132.5 42.6875 131.797 42.9844 130.984 42.9844C130.172 42.9844 129.469 42.6875 128.875 42.0938C128.281 41.5 127.984 40.7969 127.984 39.9844C127.984 39.1719 128.281 38.4688 128.875 37.875C129.469 37.2812 130.172 36.9844 130.984 36.9844C131.797 36.9844 132.5 37.2812 133.094 37.875C133.688 38.4688 133.984 39.1719 133.984 39.9844C133.984 40.7969 133.688 41.5 133.094 42.0938Z" fill="#03A9F4"/>
<path d="M0 84C0 81.7909 1.79086 80 4 80H16C18.2091 80 20 81.7909 20 84V84C20 86.2091 18.2091 88 16 88H4C1.79086 88 0 86.2091 0 84V84Z" fill="white" fill-opacity="0.48"/>
<path d="M28 84C28 81.7909 29.7909 80 32 80V80C34.2091 80 36 81.7909 36 84V84C36 86.2091 34.2091 88 32 88V88C29.7909 88 28 86.2091 28 84V84Z" fill="white" fill-opacity="0.24"/>
<path d="M40 84C40 81.7909 41.7909 80 44 80V80C46.2091 80 48 81.7909 48 84V84C48 86.2091 46.2091 88 44 88V88C41.7909 88 40 86.2091 40 84V84Z" fill="white" fill-opacity="0.24"/>
<path d="M0 100C0 95.5817 3.58172 92 8 92H40C44.4183 92 48 95.5817 48 100V144C48 148.418 44.4183 152 40 152H8C3.58172 152 0 148.418 0 144V100Z" fill="#1C1C1C"/>
<path d="M8 92.5H40C44.1421 92.5 47.5 95.8579 47.5 100V144C47.5 148.142 44.1421 151.5 40 151.5H8C3.85787 151.5 0.5 148.142 0.5 144V100L0.509766 99.6143C0.704063 95.7792 3.77915 92.7041 7.61426 92.5098L8 92.5Z" stroke="white" stroke-opacity="0.24"/>
<path d="M14.0156 116H33.9844V128H32.0156V125.984H27.9844V128H26.0156V118.016H15.9844V128H14.0156V116ZM32.0156 118.016H27.9844V119.984H32.0156V118.016ZM27.9844 124.016H32.0156V122H27.9844V124.016Z" fill="#03A9F4"/>
<path d="M56 84C56 81.7909 57.7909 80 60 80H72C74.2091 80 76 81.7909 76 84V84C76 86.2091 74.2091 88 72 88H60C57.7909 88 56 86.2091 56 84V84Z" fill="white" fill-opacity="0.48"/>
<path d="M84 84C84 81.7909 85.7909 80 88 80V80C90.2091 80 92 81.7909 92 84V84C92 86.2091 90.2091 88 88 88V88C85.7909 88 84 86.2091 84 84V84Z" fill="white" fill-opacity="0.24"/>
<path d="M96 84C96 81.7909 97.7909 80 100 80V80C102.209 80 104 81.7909 104 84V84C104 86.2091 102.209 88 100 88V88C97.7909 88 96 86.2091 96 84V84Z" fill="white" fill-opacity="0.24"/>
<path d="M56 100C56 95.5817 59.5817 92 64 92H96C100.418 92 104 95.5817 104 100V144C104 148.418 100.418 152 96 152H64C59.5817 152 56 148.418 56 144V100Z" fill="#1C1C1C"/>
<path d="M64 92.5H96C100.142 92.5 103.5 95.8579 103.5 100V144C103.5 148.142 100.142 151.5 96 151.5H64C59.8579 151.5 56.5 148.142 56.5 144V100L56.5098 99.6143C56.7041 95.7792 59.7792 92.7041 63.6143 92.5098L64 92.5Z" stroke="white" stroke-opacity="0.24"/>
<path d="M77.9844 121.016V122.984H80V121.016H77.9844ZM82.0156 116V131H71V128.984H73.0156V113H82.0156V113.984H86.9844V128.984H89V131H85.0156V116H82.0156Z" fill="#03A9F4"/>
</g>
<defs>
<clipPath id="clip0_1738_5532">
<rect width="160" height="160" fill="white"/>
</clipPath>
</defs>
</svg>
