<svg width="160" height="160" viewBox="0 0 160 160" fill="none" xmlns="http://www.w3.org/2000/svg">
<g clip-path="url(#clip0_4744_40067)">
<path d="M0 6C0 2.68629 2.68629 0 6 0H28C31.3137 0 34 2.68629 34 6C34 9.31371 31.3137 12 28 12H6C2.68629 12 0 9.31371 0 6Z" fill="white" fill-opacity="0.48"/>
<path d="M0 28C0 23.5817 3.58172 20 8 20H42.6667C47.0849 20 50.6667 23.5817 50.6667 28V36C50.6667 40.4183 47.0849 44 42.6667 44H8.00001C3.58173 44 0 40.4183 0 36V28Z" fill="#1C1C1C"/>
<path d="M8 20.5H42.667C46.809 20.5002 50.167 23.858 50.167 28V36C50.167 40.142 46.809 43.4998 42.667 43.5H8C3.85787 43.5 0.5 40.1421 0.5 36V28C0.5 23.8579 3.85786 20.5 8 20.5Z" stroke="white" stroke-opacity="0.24"/>
<path d="M6 32C6 28.6863 8.68629 26 12 26C15.3137 26 18 28.6863 18 32C18 35.3137 15.3137 38 12 38C8.68629 38 6 35.3137 6 32Z" fill="white" fill-opacity="0.24"/>
<path d="M24 31C24 29.3431 25.3431 28 27 28H39.6667C41.3235 28 42.6667 29.3431 42.6667 31V33C42.6667 34.6569 41.3235 36 39.6667 36H27C25.3431 36 24 34.6569 24 33V31Z" fill="white" fill-opacity="0.24"/>
<path d="M54.6666 28C54.6666 23.5817 58.2483 20 62.6666 20H97.3333C101.752 20 105.333 23.5817 105.333 28V36C105.333 40.4183 101.752 44 97.3333 44H62.6666C58.2484 44 54.6666 40.4183 54.6666 36V28Z" fill="#1C1C1C"/>
<path d="M62.6666 20.5H97.3336C101.476 20.5002 104.834 23.858 104.834 28V36C104.834 40.142 101.476 43.4998 97.3336 43.5H62.6666C58.5245 43.5 55.1666 40.1421 55.1666 36V28C55.1666 23.8579 58.5245 20.5 62.6666 20.5Z" stroke="white" stroke-opacity="0.24"/>
<path d="M60.6666 32C60.6666 28.6863 63.3529 26 66.6666 26C69.9803 26 72.6666 28.6863 72.6666 32C72.6666 35.3137 69.9803 38 66.6666 38C63.3529 38 60.6666 35.3137 60.6666 32Z" fill="white" fill-opacity="0.24"/>
<path d="M78.6666 31C78.6666 29.3431 80.0098 28 81.6666 28H94.3333C95.9901 28 97.3333 29.3431 97.3333 31V33C97.3333 34.6569 95.9901 36 94.3333 36H81.6666C80.0098 36 78.6666 34.6569 78.6666 33V31Z" fill="white" fill-opacity="0.24"/>
<path d="M109.333 28C109.333 23.5817 112.915 20 117.333 20H152C156.418 20 160 23.5817 160 28V36C160 40.4183 156.418 44 152 44H117.333C112.915 44 109.333 40.4183 109.333 36V28Z" fill="#1C1C1C"/>
<path d="M117.333 20.5H152C156.142 20.5002 159.5 23.858 159.5 28V36C159.5 40.142 156.142 43.4998 152 43.5H117.333C113.191 43.5 109.833 40.1421 109.833 36V28C109.833 23.8579 113.191 20.5 117.333 20.5Z" stroke="white" stroke-opacity="0.24"/>
<path d="M115.333 32C115.333 28.6863 118.02 26 121.333 26C124.647 26 127.333 28.6863 127.333 32C127.333 35.3137 124.647 38 121.333 38C118.02 38 115.333 35.3137 115.333 32Z" fill="white" fill-opacity="0.24"/>
<path d="M133.333 31C133.333 29.3431 134.677 28 136.333 28H149C150.657 28 152 29.3431 152 31V33C152 34.6569 150.657 36 149 36H136.333C134.677 36 133.333 34.6569 133.333 33V31Z" fill="white" fill-opacity="0.24"/>
<path d="M0 56C0 53.7909 1.79086 52 4 52H29C31.2091 52 33 53.7909 33 56C33 58.2091 31.2091 60 29 60H4C1.79086 60 0 58.2091 0 56Z" fill="white" fill-opacity="0.48"/>
<path d="M0 72C0 67.5817 3.58172 64 8 64H29C33.4183 64 37 67.5817 37 72V96C37 100.418 33.4183 104 29 104H8C3.58172 104 0 100.418 0 96V72Z" fill="#1C1C1C"/>
<path d="M8 64.5H29C33.1421 64.5 36.5 67.8579 36.5 72V96C36.5 100.142 33.1421 103.5 29 103.5H8C3.85786 103.5 0.5 100.142 0.5 96V72C0.5 67.8579 3.85786 64.5 8 64.5Z" stroke="white" stroke-opacity="0.24"/>
<mask id="mask0_4744_40067" style="mask-type:alpha" maskUnits="userSpaceOnUse" x="6" y="72" width="25" height="24">
<path d="M18.5 74C16.6435 74 14.863 74.7375 13.5503 76.0503C12.2375 77.363 11.5 79.1435 11.5 81C11.5 83.38 12.69 85.47 14.5 86.74V89C14.5 89.2652 14.6054 89.5196 14.7929 89.7071C14.9804 89.8946 15.2348 90 15.5 90H21.5C21.7652 90 22.0196 89.8946 22.2071 89.7071C22.3946 89.5196 22.5 89.2652 22.5 89V86.74C24.31 85.47 25.5 83.38 25.5 81C25.5 79.1435 24.7625 77.363 23.4497 76.0503C22.137 74.7375 20.3565 74 18.5 74ZM15.5 93C15.5 93.2652 15.6054 93.5196 15.7929 93.7071C15.9804 93.8946 16.2348 94 16.5 94H20.5C20.7652 94 21.0196 93.8946 21.2071 93.7071C21.3946 93.5196 21.5 93.2652 21.5 93V92H15.5V93Z" fill="black"/>
</mask>
<g mask="url(#mask0_4744_40067)">
<rect x="6.5" y="72" width="24" height="24" fill="#03A9F4"/>
</g>
<path d="M41 72C41 67.5817 44.5817 64 49 64H70C74.4183 64 78 67.5817 78 72V96C78 100.418 74.4183 104 70 104H49C44.5817 104 41 100.418 41 96V72Z" fill="#1C1C1C"/>
<path d="M49 64.5H70C74.1421 64.5 77.5 67.8579 77.5 72V96C77.5 100.142 74.1421 103.5 70 103.5H49C44.8579 103.5 41.5 100.142 41.5 96V72C41.5 67.8579 44.8579 64.5 49 64.5Z" stroke="white" stroke-opacity="0.24"/>
<mask id="mask1_4744_40067" style="mask-type:alpha" maskUnits="userSpaceOnUse" x="47" y="72" width="25" height="24">
<path d="M66.5 80C67.61 80 68.5 80.9 68.5 82V88.76C69.11 89.31 69.5 90.11 69.5 91C69.5 92.66 68.16 94 66.5 94C64.84 94 63.5 92.66 63.5 91C63.5 90.11 63.89 89.31 64.5 88.76V82C64.5 80.9 65.4 80 66.5 80ZM66.5 81C65.95 81 65.5 81.45 65.5 82V83H67.5V82C67.5 81.45 67.05 81 66.5 81ZM52.5 92V84H49.5L59.5 75L63.9 78.96C63.04 79.69 62.5 80.78 62.5 82V88C61.87 88.83 61.5 89.87 61.5 91L61.6 92H52.5Z" fill="black"/>
</mask>
<g mask="url(#mask1_4744_40067)">
<rect x="47.5" y="72" width="24" height="24" fill="#03A9F4"/>
</g>
<path d="M82 72C82 67.5817 85.5817 64 90 64H111C115.418 64 119 67.5817 119 72V96C119 100.418 115.418 104 111 104H90C85.5817 104 82 100.418 82 96V72Z" fill="#1C1C1C"/>
<path d="M90 64.5H111C115.142 64.5 118.5 67.8579 118.5 72V96C118.5 100.142 115.142 103.5 111 103.5H90C85.8579 103.5 82.5 100.142 82.5 96V72C82.5 67.8579 85.8579 64.5 90 64.5Z" stroke="white" stroke-opacity="0.24"/>
<mask id="mask2_4744_40067" style="mask-type:alpha" maskUnits="userSpaceOnUse" x="88" y="72" width="25" height="24">
<path d="M100.5 84H107.5C106.97 88.11 104.22 91.78 100.5 92.92V84H93.5V78.3L100.5 75.19M100.5 73L91.5 77V83C91.5 88.55 95.34 93.73 100.5 95C105.66 93.73 109.5 88.55 109.5 83V77L100.5 73Z" fill="black"/>
</mask>
<g mask="url(#mask2_4744_40067)">
<rect x="88.5" y="72" width="24" height="24" fill="#03A9F4"/>
</g>
<path d="M123 72C123 67.5817 126.582 64 131 64H152C156.418 64 160 67.5817 160 72V96C160 100.418 156.418 104 152 104H131C126.582 104 123 100.418 123 96V72Z" fill="#1C1C1C"/>
<path d="M131 64.5H152C156.142 64.5 159.5 67.8579 159.5 72V96C159.5 100.142 156.142 103.5 152 103.5H131C126.858 103.5 123.5 100.142 123.5 96V72C123.5 67.8579 126.858 64.5 131 64.5Z" stroke="white" stroke-opacity="0.24"/>
<mask id="mask3_4744_40067" style="mask-type:alpha" maskUnits="userSpaceOnUse" x="129" y="72" width="25" height="24">
<path d="M145.5 84C145.5 83.4696 145.711 82.9609 146.086 82.5858C146.461 82.2107 146.97 82 147.5 82C148.03 82 148.539 82.2107 148.914 82.5858C149.289 82.9609 149.5 83.4696 149.5 84C149.5 84.5304 149.289 85.0391 148.914 85.4142C148.539 85.7893 148.03 86 147.5 86C146.97 86 146.461 85.7893 146.086 85.4142C145.711 85.0391 145.5 84.5304 145.5 84ZM139.5 84C139.5 83.4696 139.711 82.9609 140.086 82.5858C140.461 82.2107 140.97 82 141.5 82C142.03 82 142.539 82.2107 142.914 82.5858C143.289 82.9609 143.5 83.4696 143.5 84C143.5 84.5304 143.289 85.0391 142.914 85.4142C142.539 85.7893 142.03 86 141.5 86C140.97 86 140.461 85.7893 140.086 85.4142C139.711 85.0391 139.5 84.5304 139.5 84ZM133.5 84C133.5 83.4696 133.711 82.9609 134.086 82.5858C134.461 82.2107 134.97 82 135.5 82C136.03 82 136.539 82.2107 136.914 82.5858C137.289 82.9609 137.5 83.4696 137.5 84C137.5 84.5304 137.289 85.0391 136.914 85.4142C136.539 85.7893 136.03 86 135.5 86C134.97 86 134.461 85.7893 134.086 85.4142C133.711 85.0391 133.5 84.5304 133.5 84Z" fill="black"/>
</mask>
<g mask="url(#mask3_4744_40067)">
<rect x="129.5" y="72" width="24" height="24" fill="#03A9F4"/>
</g>
<path d="M0 116C0 113.791 1.79086 112 4 112H29C31.2091 112 33 113.791 33 116C33 118.209 31.2091 120 29 120H4C1.79086 120 0 118.209 0 116Z" fill="white" fill-opacity="0.48"/>
<path d="M0 132C0 127.582 3.58172 124 8 124H70C74.4183 124 78 127.582 78 132V160H0V132Z" fill="url(#paint0_linear_4744_40067)"/>
<path d="M8 124.5H70C74.1421 124.5 77.5 127.858 77.5 132V159.5H0.5V132C0.5 127.858 3.85786 124.5 8 124.5Z" stroke="url(#paint1_linear_4744_40067)" stroke-opacity="0.12"/>
<path d="M82 132C82 127.582 85.5817 124 90 124H152C156.418 124 160 127.582 160 132V160H82V132Z" fill="url(#paint2_linear_4744_40067)"/>
<path d="M90 124.5H152C156.142 124.5 159.5 127.858 159.5 132V159.5H82.5V132C82.5 127.858 85.8579 124.5 90 124.5Z" stroke="url(#paint3_linear_4744_40067)" stroke-opacity="0.12"/>
</g>
<defs>
<linearGradient id="paint0_linear_4744_40067" x1="39" y1="124" x2="39" y2="160" gradientUnits="userSpaceOnUse">
<stop offset="0.5" stop-color="#1C1C1C"/>
<stop offset="1" stop-color="#1C1C1C" stop-opacity="0"/>
</linearGradient>
<linearGradient id="paint1_linear_4744_40067" x1="39" y1="124" x2="39" y2="160" gradientUnits="userSpaceOnUse">
<stop offset="0.5" stop-color="white" stop-opacity="0.24"/>
<stop offset="1" stop-opacity="0"/>
</linearGradient>
<linearGradient id="paint2_linear_4744_40067" x1="121" y1="124" x2="121" y2="160" gradientUnits="userSpaceOnUse">
<stop offset="0.5" stop-color="#1C1C1C"/>
<stop offset="1" stop-color="#1C1C1C" stop-opacity="0"/>
</linearGradient>
<linearGradient id="paint3_linear_4744_40067" x1="121" y1="124" x2="121" y2="160" gradientUnits="userSpaceOnUse">
<stop offset="0.5" stop-color="white" stop-opacity="0.24"/>
<stop offset="1" stop-opacity="0"/>
</linearGradient>
<clipPath id="clip0_4744_40067">
<rect width="160" height="160" fill="white"/>
</clipPath>
</defs>
</svg>
