<svg width="160" height="160" viewBox="0 0 160 160" fill="none" xmlns="http://www.w3.org/2000/svg">
<g clip-path="url(#clip0_1738_5537)">
<rect width="160" height="160" rx="6" fill="white"/>
<rect x="0.5" y="0.5" width="159" height="159" rx="5.5" stroke="black" stroke-opacity="0.12"/>
<rect x="8" y="8" width="144" height="11" rx="5.5" fill="black" fill-opacity="0.32"/>
<rect x="8" y="27" width="45.3333" height="106" rx="4" fill="#E9E9E9"/>
<rect x="57.3333" y="27" width="45.3333" height="30" rx="4" fill="#E9E9E9"/>
<rect x="106.667" y="27" width="45.3333" height="68" rx="4" fill="#E9E9E9"/>
<path d="M84.3594 82.0156H87.7344C87.9219 81.1406 88.0156 80.4688 88.0156 80C88.0156 79.5312 87.9219 78.8594 87.7344 77.9844H84.3594C84.4531 78.6406 84.5 79.3125 84.5 80C84.5 80.6875 84.4531 81.3594 84.3594 82.0156ZM82.5781 87.5469C83.3594 87.2969 84.1719 86.8281 85.0156 86.1406C85.8594 85.4219 86.5 84.7031 86.9375 83.9844H83.9844C83.6719 85.2344 83.2031 86.4219 82.5781 87.5469ZM82.3438 82.0156C82.4375 81.3594 82.4844 80.6875 82.4844 80C82.4844 79.3125 82.4375 78.6406 82.3438 77.9844H77.6562C77.5625 78.6406 77.5156 79.3125 77.5156 80C77.5156 80.6875 77.5625 81.3594 77.6562 82.0156H82.3438ZM80 87.9688C80.875 86.6875 81.5156 85.3594 81.9219 83.9844H78.0781C78.4844 85.3594 79.125 86.6875 80 87.9688ZM76.0156 76.0156C76.3906 74.6719 76.8594 73.4844 77.4219 72.4531C76.6406 72.7031 75.8125 73.1875 74.9375 73.9062C74.0938 74.5938 73.4688 75.2969 73.0625 76.0156H76.0156ZM73.0625 83.9844C73.4688 84.7031 74.0938 85.4219 74.9375 86.1406C75.8125 86.8281 76.6406 87.2969 77.4219 87.5469C76.7969 86.4219 76.3281 85.2344 76.0156 83.9844H73.0625ZM72.2656 82.0156H75.6406C75.5469 81.3594 75.5 80.6875 75.5 80C75.5 79.3125 75.5469 78.6406 75.6406 77.9844H72.2656C72.0781 78.8594 71.9844 79.5312 71.9844 80C71.9844 80.4688 72.0781 81.1406 72.2656 82.0156ZM80 72.0312C79.125 73.3125 78.4844 74.6406 78.0781 76.0156H81.9219C81.5156 74.6406 80.875 73.3125 80 72.0312ZM86.9375 76.0156C86.5 75.2969 85.8594 74.5938 85.0156 73.9062C84.1719 73.1875 83.3594 72.7031 82.5781 72.4531C83.1406 73.4844 83.6094 74.6719 83.9844 76.0156H86.9375ZM72.9219 72.9688C74.8906 71 77.25 70.0156 80 70.0156C82.75 70.0156 85.0938 71 87.0312 72.9688C89 74.9062 89.9844 77.25 89.9844 80C89.9844 82.75 89 85.1094 87.0312 87.0781C85.0938 89.0156 82.75 89.9844 80 89.9844C77.25 89.9844 74.8906 89.0156 72.9219 87.0781C70.9844 85.1094 70.0156 82.75 70.0156 80C70.0156 77.25 70.9844 74.9062 72.9219 72.9688Z" fill="#03A9F4"/>
</g>
<defs>
<clipPath id="clip0_1738_5537">
<rect width="160" height="160" fill="white"/>
</clipPath>
</defs>
</svg>
