<svg width="160" height="160" viewBox="0 0 160 160" fill="none" xmlns="http://www.w3.org/2000/svg">
<g clip-path="url(#clip0_3969_50764)">
<path d="M0 4C0 1.79086 1.79086 0 4 0H16C18.2091 0 20 1.79086 20 4V4C20 6.20914 18.2091 8 16 8H4C1.79086 8 0 6.20914 0 4V4Z" fill="black" fill-opacity="0.32"/>
<path d="M0 20C0 15.5817 3.58172 12 8 12H68C72.4183 12 76 15.5817 76 20V36C76 40.4183 72.4183 44 68 44H8C3.58172 44 0 40.4183 0 36V20Z" fill="white"/>
<path d="M8 12.5H68C72.1421 12.5 75.5 15.8579 75.5 20V36C75.5 40.1421 72.1421 43.5 68 43.5H8C3.85786 43.5 0.5 40.1421 0.5 36V20C0.5 15.8579 3.85786 12.5 8 12.5Z" stroke="black" stroke-opacity="0.12"/>
<path d="M32.9844 27.0156C32.9844 26.0781 32.7031 25.2656 32.1406 24.5781C31.5781 23.8594 30.8594 23.375 29.9844 23.125V22C29.9844 21.4375 30.125 20.9375 30.4062 20.5C30.6875 20.0312 31.0469 19.6719 31.4844 19.4219C31.9531 19.1406 32.4531 19 32.9844 19H43.0156C43.5469 19 44.0312 19.1406 44.4688 19.4219C44.9375 19.6719 45.3125 20.0312 45.5938 20.5C45.875 20.9375 46.0156 21.4375 46.0156 22V23.125C45.1406 23.375 44.4219 23.8594 43.8594 24.5781C43.2969 25.2656 43.0156 26.0781 43.0156 27.0156V28.9844H32.9844V27.0156ZM47 25C47.5625 25 48.0312 25.2031 48.4062 25.6094C48.8125 25.9844 49.0156 26.4531 49.0156 27.0156V31.9844C49.0156 32.5469 48.875 33.0625 48.5938 33.5312C48.3125 33.9688 47.9375 34.3281 47.4688 34.6094C47.0312 34.8594 46.5469 34.9844 46.0156 34.9844V36.0156C46.0156 36.2656 45.9062 36.5 45.6875 36.7188C45.5 36.9062 45.2656 37 44.9844 37C44.7344 37 44.5 36.9062 44.2812 36.7188C44.0938 36.5 44 36.2656 44 36.0156V34.9844H32V36.0156C32 36.2656 31.8906 36.5 31.6719 36.7188C31.4844 36.9062 31.2656 37 31.0156 37C30.7344 37 30.4844 36.9062 30.2656 36.7188C30.0781 36.5 29.9844 36.2656 29.9844 36.0156V34.9844C29.4531 34.9844 28.9531 34.8594 28.4844 34.6094C28.0469 34.3281 27.6875 33.9688 27.4062 33.5312C27.125 33.0625 26.9844 32.5469 26.9844 31.9844V27.0156C26.9844 26.4531 27.1719 25.9844 27.5469 25.6094C27.9531 25.2031 28.4375 25 29 25C29.5625 25 30.0312 25.2031 30.4062 25.6094C30.8125 25.9844 31.0156 26.4531 31.0156 27.0156V31H44.9844V27.0156C44.9844 26.4531 45.1719 25.9844 45.5469 25.6094C45.9531 25.2031 46.4375 25 47 25Z" fill="#03A9F4"/>
<path d="M0 56C0 51.5817 3.58172 48 8 48H68C72.4183 48 76 51.5817 76 56V72C76 76.4183 72.4183 80 68 80H8C3.58172 80 0 76.4183 0 72V56Z" fill="white"/>
<path d="M8 48.5H68C72.1421 48.5 75.5 51.8579 75.5 56V72C75.5 76.1421 72.1421 79.5 68 79.5H8C3.85786 79.5 0.5 76.1421 0.5 72V56C0.5 51.8579 3.85786 48.5 8 48.5Z" stroke="black" stroke-opacity="0.12"/>
<path d="M44 61.9844H47.9844V64H46.0156V72.0156H29.9844V64H28.0156V61.9844H32C31.4375 61.9844 30.9531 61.7969 30.5469 61.4219C30.1719 61.0156 29.9844 60.5469 29.9844 60.0156V55.9844H35.9844V60.0156C35.9844 60.5469 35.7812 61.0156 35.375 61.4219C35 61.7969 34.5469 61.9844 34.0156 61.9844H41.9844V58.9844C41.9844 58.7344 41.8906 58.5156 41.7031 58.3281C41.5156 58.1094 41.2812 58 41 58C40.7188 58 40.4844 58.1094 40.2969 58.3281C40.1094 58.5156 40.0156 58.7344 40.0156 58.9844H38C38 58.4531 38.125 57.9688 38.375 57.5312C38.6562 57.0625 39.0156 56.6875 39.4531 56.4062C39.9219 56.125 40.4375 55.9844 41 55.9844C41.5625 55.9844 42.0625 56.125 42.5 56.4062C42.9688 56.6875 43.3281 57.0625 43.5781 57.5312C43.8594 57.9688 44 58.4531 44 58.9844V61.9844ZM38.9844 70V64H37.0156V70H38.9844Z" fill="#03A9F4"/>
<path d="M0 92C0 87.5817 3.58172 84 8 84H68C72.4183 84 76 87.5817 76 92V108C76 112.418 72.4183 116 68 116H8C3.58172 116 0 112.418 0 108V92Z" fill="white"/>
<path d="M8 84.5H68C72.1421 84.5 75.5 87.8579 75.5 92V108C75.5 112.142 72.1421 115.5 68 115.5H8C3.85786 115.5 0.5 112.142 0.5 108V92C0.5 87.8579 3.85786 84.5 8 84.5Z" stroke="black" stroke-opacity="0.12"/>
<path d="M44.9844 94.9844C46.0781 94.9844 47.0156 95.3906 47.7969 96.2031C48.6094 96.9844 49.0156 97.9219 49.0156 99.0156V108.016H47V105.016H29V108.016H26.9844V93.0156H29V102.016H37.0156V94.9844H44.9844ZM35.0938 100.094C34.5 100.688 33.7969 100.984 32.9844 100.984C32.1719 100.984 31.4688 100.688 30.875 100.094C30.2812 99.5 29.9844 98.7969 29.9844 97.9844C29.9844 97.1719 30.2812 96.4688 30.875 95.875C31.4688 95.2812 32.1719 94.9844 32.9844 94.9844C33.7969 94.9844 34.5 95.2812 35.0938 95.875C35.6875 96.4688 35.9844 97.1719 35.9844 97.9844C35.9844 98.7969 35.6875 99.5 35.0938 100.094Z" fill="#03A9F4"/>
<path d="M0 128C0 123.582 3.58172 120 8 120H68C72.4183 120 76 123.582 76 128V144C76 148.418 72.4183 152 68 152H8C3.58172 152 0 148.418 0 144V128Z" fill="white"/>
<path d="M8 120.5H68C72.1421 120.5 75.5 123.858 75.5 128V144C75.5 148.142 72.1421 151.5 68 151.5H8C3.85786 151.5 0.5 148.142 0.5 144V128C0.5 123.858 3.85786 120.5 8 120.5Z" stroke="black" stroke-opacity="0.12"/>
<path d="M46.0156 136.984H47.9844V142.984C47.9844 143.516 47.7812 143.984 47.375 144.391C47 144.797 46.5469 145 46.0156 145C46.0156 145.281 45.9062 145.516 45.6875 145.703C45.5 145.891 45.2656 145.984 44.9844 145.984H31.0156C30.7344 145.984 30.4844 145.891 30.2656 145.703C30.0781 145.516 29.9844 145.281 29.9844 145C29.4531 145 28.9844 144.797 28.5781 144.391C28.2031 143.984 28.0156 143.516 28.0156 142.984V136.984H31.0156V136.234C31.0156 135.641 31.2344 135.125 31.6719 134.688C32.1406 134.219 32.6719 133.984 33.2656 133.984C33.8906 133.984 34.4531 134.234 34.9531 134.734L36.3125 136.281C36.5 136.5 36.7812 136.734 37.1562 136.984H44V128.828C44 128.609 43.9219 128.422 43.7656 128.266C43.6094 128.078 43.4062 127.984 43.1562 127.984C42.9375 127.984 42.75 128.062 42.5938 128.219L41.3281 129.484C41.3906 129.734 41.4219 129.906 41.4219 130C41.4219 130.344 41.3125 130.703 41.0938 131.078L38.3281 128.312C38.7031 128.094 39.0625 127.984 39.4062 127.984C39.5625 127.984 39.7344 128.016 39.9219 128.078L41.1875 126.812C41.7188 126.281 42.375 126.016 43.1562 126.016C43.9375 126.016 44.6094 126.297 45.1719 126.859C45.7344 127.391 46.0156 128.047 46.0156 128.828V136.984ZM31.5781 132.438C31.2031 132.031 31.0156 131.547 31.0156 130.984C31.0156 130.422 31.2031 129.953 31.5781 129.578C31.9531 129.203 32.4219 129.016 32.9844 129.016C33.5469 129.016 34.0156 129.203 34.3906 129.578C34.7969 129.953 35 130.422 35 130.984C35 131.547 34.7969 132.031 34.3906 132.438C34.0156 132.812 33.5469 133 32.9844 133C32.4219 133 31.9531 132.812 31.5781 132.438Z" fill="#03A9F4"/>
<path d="M84 4C84 1.79086 85.7909 0 88 0H100C102.209 0 104 1.79086 104 4V4C104 6.20914 102.209 8 100 8H88C85.7909 8 84 6.20914 84 4V4Z" fill="black" fill-opacity="0.32"/>
<path d="M84 20C84 15.5817 87.5817 12 92 12H152C156.418 12 160 15.5817 160 20V36C160 40.4183 156.418 44 152 44H92C87.5817 44 84 40.4183 84 36V20Z" fill="white"/>
<path d="M92 12.5H152C156.142 12.5 159.5 15.8579 159.5 20V36C159.5 40.1421 156.142 43.5 152 43.5H92C87.8579 43.5 84.5 40.1421 84.5 36V20C84.5 15.8579 87.8579 12.5 92 12.5Z" stroke="black" stroke-opacity="0.12"/>
<path d="M131.984 30.0156C131.984 30.7656 131.797 31.4531 131.422 32.0781C131.047 32.6719 130.562 33.1406 129.969 33.4844C129.844 34.2031 129.5 34.8125 128.938 35.3125C128.406 35.7812 127.766 36.0156 127.016 36.0156C126.359 36.0156 125.766 35.8281 125.234 35.4531C124.734 35.0781 124.391 34.5938 124.203 34H119.797C119.609 34.5938 119.25 35.0781 118.719 35.4531C118.219 35.8281 117.641 36.0156 116.984 36.0156C116.234 36.0156 115.578 35.7812 115.016 35.3125C114.484 34.8125 114.156 34.2031 114.031 33.4844C113.438 33.1406 112.953 32.6719 112.578 32.0781C112.203 31.4531 112.016 30.7656 112.016 30.0156C112.016 29.1094 112.266 28.3125 112.766 27.625C113.297 26.9375 113.969 26.4688 114.781 26.2188L113 24.3906L112.719 24.7188C112.5 24.9062 112.25 25 111.969 25C111.719 25 111.5 24.9062 111.312 24.7188C111.094 24.5312 110.984 24.2969 110.984 24.0156C110.984 23.7344 111.094 23.5 111.312 23.3125L113.281 21.2969C113.469 21.1094 113.703 21.0156 113.984 21.0156C114.266 21.0156 114.5 21.1094 114.688 21.2969C114.906 21.4844 115.016 21.7188 115.016 22C115.016 22.2812 114.906 22.5156 114.688 22.7031L114.406 22.9844L115.812 24.3906L116.609 22.0469C116.797 21.4219 117.156 20.9219 117.688 20.5469C118.219 20.1719 118.797 19.9844 119.422 19.9844H124.578C125.203 19.9844 125.781 20.1719 126.312 20.5469C126.844 20.9219 127.203 21.4219 127.391 22.0469L128.75 26.0781C129.375 26.2031 129.922 26.4531 130.391 26.8281C130.891 27.2031 131.281 27.6719 131.562 28.2344C131.844 28.7656 131.984 29.3594 131.984 30.0156ZM116.984 34C117.266 34 117.5 33.9062 117.688 33.7188C117.906 33.5 118.016 33.2656 118.016 33.0156C118.016 32.7344 117.906 32.5 117.688 32.3125C117.5 32.0938 117.266 31.9844 116.984 31.9844C116.734 31.9844 116.5 32.0938 116.281 32.3125C116.094 32.5 116 32.7344 116 33.0156C116 33.2656 116.094 33.5 116.281 33.7188C116.5 33.9062 116.734 34 116.984 34ZM121.016 25.9844V22H119.422C118.953 22 118.641 22.2344 118.484 22.7031L117.406 25.9844H121.016ZM122.984 22V25.9844H126.594L125.516 22.7031C125.359 22.2344 125.047 22 124.578 22H122.984ZM127.016 34C127.266 34 127.484 33.9062 127.672 33.7188C127.891 33.5 128 33.2656 128 33.0156C128 32.7344 127.891 32.5 127.672 32.3125C127.484 32.0938 127.266 31.9844 127.016 31.9844C126.734 31.9844 126.484 32.0938 126.266 32.3125C126.078 32.5 125.984 32.7344 125.984 33.0156C125.984 33.2656 126.078 33.5 126.266 33.7188C126.484 33.9062 126.734 34 127.016 34Z" fill="#03A9F4"/>
<path d="M84 56C84 51.5817 87.5817 48 92 48H152C156.418 48 160 51.5817 160 56V72C160 76.4183 156.418 80 152 80H92C87.5817 80 84 76.4183 84 72V56Z" fill="white"/>
<path d="M92 48.5H152C156.142 48.5 159.5 51.8579 159.5 56V72C159.5 76.1421 156.142 79.5 152 79.5H92C87.8579 79.5 84.5 76.1421 84.5 72V56C84.5 51.8579 87.8579 48.5 92 48.5Z" stroke="black" stroke-opacity="0.12"/>
<path d="M128.984 58.9844C130.078 58.9844 131.016 59.3906 131.797 60.2031C132.609 60.9844 133.016 61.9219 133.016 63.0156V72.0156H131V69.0156H113V72.0156H110.984V57.0156H113V66.0156H121.016V58.9844H128.984ZM119.094 64.0938C118.5 64.6875 117.797 64.9844 116.984 64.9844C116.172 64.9844 115.469 64.6875 114.875 64.0938C114.281 63.5 113.984 62.7969 113.984 61.9844C113.984 61.1719 114.281 60.4688 114.875 59.875C115.469 59.2812 116.172 58.9844 116.984 58.9844C117.797 58.9844 118.5 59.2812 119.094 59.875C119.688 60.4688 119.984 61.1719 119.984 61.9844C119.984 62.7969 119.688 63.5 119.094 64.0938Z" fill="#03A9F4"/>
<path d="M84 92C84 87.5817 87.5817 84 92 84H152C156.418 84 160 87.5817 160 92V108C160 112.418 156.418 116 152 116H92C87.5817 116 84 112.418 84 108V92Z" fill="white"/>
<path d="M92 84.5H152C156.142 84.5 159.5 87.8579 159.5 92V108C159.5 112.142 156.142 115.5 152 115.5H92C87.8579 115.5 84.5 112.142 84.5 108V92C84.5 87.8579 87.8579 84.5 92 84.5Z" stroke="black" stroke-opacity="0.12"/>
<path d="M112.016 94H131.984V106H130.016V103.984H125.984V106H124.016V96.0156H113.984V106H112.016V94ZM130.016 96.0156H125.984V97.9844H130.016V96.0156ZM125.984 102.016H130.016V100H125.984V102.016Z" fill="#03A9F4"/>
</g>
<defs>
<clipPath id="clip0_3969_50764">
<rect width="160" height="160" fill="white"/>
</clipPath>
</defs>
</svg>
