<?xml version="1.0" encoding="utf-8"?>
<!-- Generator: Adobe Illustrator 16.0.0, SVG Export Plug-In . SVG Version: 6.00 Build 0)  -->
<!DOCTYPE svg PUBLIC "-//W3C//DTD SVG 1.1//EN" "http://www.w3.org/Graphics/SVG/1.1/DTD/svg11.dtd">
<svg version="1.1" id="Layer_1" xmlns="http://www.w3.org/2000/svg" xmlns:xlink="http://www.w3.org/1999/xlink" x="0px" y="0px"
	 width="24px" height="24px" viewBox="0 0 24 24" enable-background="new 0 0 24 24" xml:space="preserve">
<path d="M9.834,14.169h4.334V18.5H9.834 M9.834,5.5h4.334v4.334H9.834 M9.834,22.831h4.334c2.39,0,4.331-1.935,4.331-4.331v-3.25
	c0-1.792-1.458-3.25-3.25-3.25c1.792,0,3.25-1.455,3.25-3.25V5.5c0-2.405-1.953-4.334-4.331-4.334H9.834
	C7.441,1.166,5.5,3.107,5.5,5.5v3.25C5.5,10.545,6.954,12,8.75,12c-1.796,0-3.25,1.458-3.25,3.25v3.25
	C5.5,20.901,7.449,22.831,9.834,22.831"/>
</svg>
