<?xml version="1.0" encoding="utf-8"?>
<!-- Generator: Adobe Illustrator 16.0.0, SVG Export Plug-In . SVG Version: 6.00 Build 0)  -->
<!DOCTYPE svg PUBLIC "-//W3C//DTD SVG 1.1//EN" "http://www.w3.org/Graphics/SVG/1.1/DTD/svg11.dtd">
<svg version="1.1" xmlns="http://www.w3.org/2000/svg" xmlns:xlink="http://www.w3.org/1999/xlink" x="0px" y="0px" width="24px"
	 height="24px" viewBox="0 0 24 24" enable-background="new 0 0 24 24" xml:space="preserve">
<g id="_x33_-CC">
	<g>
		<path d="M4.475,16.443v2.16H5.57v-2.16h1.047v5.39H5.57v-2.255H4.475v2.255H3.428v-5.39H4.475z"/>
		<path d="M7.548,16.523c0.264-0.063,0.647-0.104,1.063-0.104c0.68,0,1.151,0.16,1.495,0.48c0.464,0.415,0.704,1.127,0.704,2.174
			c0,1.088-0.28,1.863-0.751,2.279c-0.36,0.352-0.896,0.52-1.647,0.52c-0.328,0-0.655-0.032-0.863-0.057V16.523z M8.595,21.002
			c0.048,0.016,0.128,0.016,0.184,0.016c0.503,0,0.943-0.496,0.943-1.982c0-1.104-0.288-1.775-0.919-1.775
			c-0.072,0-0.144,0-0.208,0.023V21.002z"/>
		<path d="M14.77,19.945c-0.023-0.512-0.064-1.207-0.048-1.782h-0.024c-0.096,0.575-0.239,1.239-0.344,1.655l-0.463,1.927h-0.744
			l-0.447-1.896c-0.104-0.432-0.248-1.104-0.328-1.687h-0.024c-0.016,0.583-0.048,1.263-0.08,1.799l-0.088,1.871h-0.904l0.392-5.39
			h1.103l0.433,1.951c0.151,0.68,0.287,1.279,0.383,1.887h0.017c0.079-0.6,0.2-1.207,0.344-1.887l0.424-1.951h1.103l0.328,5.39
			h-0.936L14.77,19.945z"/>
		<path d="M17.619,16.443v5.39h-1.047v-5.39H17.619z"/>
		<path d="M18.436,20.842c0.208,0.119,0.496,0.199,0.775,0.199c0.504,0,0.783-0.312,0.783-0.751c0-0.575-0.439-0.823-0.975-0.823
			h-0.145v-0.768h0.104c0.384-0.008,0.88-0.168,0.88-0.672c0-0.376-0.24-0.6-0.608-0.6c-0.231,0-0.464,0.088-0.655,0.207
			l-0.137-0.791c0.217-0.136,0.641-0.271,1.072-0.271c0.911,0,1.367,0.592,1.367,1.255c0,0.521-0.288,0.952-0.744,1.167v0.017
			c0.504,0.167,0.888,0.616,0.888,1.319c0,0.791-0.607,1.566-1.735,1.566c-0.424,0-0.791-0.104-1.023-0.231L18.436,20.842z"/>
	</g>
	<g>
		<path d="M5.969,11.668c-0.266,0.126-0.785,0.224-1.429,0.224c-2.409,0-3.558-1.989-3.558-4.665c0-3.558,1.975-4.944,3.81-4.944
			c0.645,0,1.093,0.126,1.275,0.252L5.759,4.077c-0.21-0.098-0.448-0.182-0.854-0.182c-1.037,0-1.975,0.896-1.975,3.235
			c0,2.255,0.854,3.138,1.975,3.138c0.308,0,0.658-0.07,0.882-0.14L5.969,11.668z"/>
		<path d="M8.473,9.651l-0.42,2.157H6.273l2.045-9.441h2.199l1.835,9.441h-1.779l-0.406-2.157H8.473z M10,8.223L9.691,6.248
			C9.593,5.673,9.467,4.735,9.383,4.104H9.341c-0.098,0.63-0.238,1.611-0.336,2.157L8.655,8.223H10z"/>
		<path d="M13.176,9.932c0.378,0.21,1.022,0.364,1.555,0.364c0.868,0,1.289-0.448,1.289-1.065c0-0.686-0.421-1.022-1.219-1.541
			c-1.289-0.785-1.779-1.779-1.779-2.633c0-1.513,1.009-2.773,2.983-2.773c0.616,0,1.205,0.168,1.485,0.336l-0.295,1.583
			C16.93,4.034,16.523,3.88,15.991,3.88c-0.784,0-1.163,0.476-1.163,0.98c0,0.561,0.28,0.854,1.303,1.471
			c1.247,0.756,1.709,1.709,1.709,2.704c0,1.723-1.274,2.857-3.123,2.857c-0.757,0-1.499-0.196-1.808-0.378L13.176,9.932z"/>
		<path d="M19.924,4.063h-1.666V2.368h5.183v1.695H21.76v7.746h-1.836V4.063z"/>
	</g>
</g>
<g id="_x32_-REC_1_" display="none">
	<g display="inline">
		<path d="M4.144,16.443v2.16h1.095v-2.16h1.047v5.39H5.239v-2.255H4.144v2.255H3.096v-5.39H4.144z"/>
		<path d="M7.216,16.523C7.48,16.46,7.864,16.42,8.28,16.42c0.68,0,1.151,0.16,1.495,0.48c0.464,0.415,0.704,1.127,0.704,2.174
			c0,1.088-0.28,1.863-0.751,2.279c-0.36,0.352-0.896,0.52-1.647,0.52c-0.328,0-0.655-0.032-0.863-0.057V16.523z M8.264,21.002
			c0.048,0.016,0.128,0.016,0.184,0.016c0.503,0,0.943-0.496,0.943-1.982c0-1.104-0.288-1.775-0.919-1.775
			c-0.072,0-0.144,0-0.208,0.023V21.002z"/>
		<path d="M14.438,19.945c-0.023-0.512-0.063-1.207-0.047-1.782h-0.024c-0.097,0.575-0.239,1.239-0.344,1.655l-0.464,1.927h-0.744
			l-0.447-1.896c-0.104-0.432-0.248-1.104-0.328-1.687h-0.024c-0.016,0.583-0.048,1.263-0.08,1.799l-0.088,1.871h-0.904l0.392-5.39
			h1.103l0.432,1.951c0.152,0.68,0.287,1.279,0.384,1.887h0.017c0.079-0.6,0.199-1.207,0.344-1.887l0.424-1.951h1.103l0.328,5.39
			h-0.936L14.438,19.945z"/>
		<path d="M17.287,16.443v5.39H16.24v-5.39H17.287z"/>
		<path d="M17.952,21.833v-0.704l0.52-0.663c0.672-0.855,1.224-1.567,1.224-2.312c0-0.415-0.232-0.711-0.664-0.711
			c-0.328,0-0.592,0.145-0.783,0.264l-0.184-0.815c0.24-0.151,0.688-0.319,1.159-0.319c1.136,0,1.503,0.76,1.503,1.503
			c0,0.976-0.607,1.759-1.207,2.454l-0.313,0.368v0.017h1.592v0.919H17.952z"/>
	</g>
	<g display="inline">
		<path d="M4.144,16.443v2.16h1.095v-2.16h1.047v5.39H5.239v-2.255H4.144v2.255H3.096v-5.39H4.144z"/>
		<path d="M7.216,16.523C7.48,16.46,7.864,16.42,8.28,16.42c0.68,0,1.151,0.16,1.495,0.48c0.464,0.415,0.704,1.127,0.704,2.174
			c0,1.088-0.28,1.863-0.751,2.279c-0.36,0.352-0.896,0.52-1.647,0.52c-0.328,0-0.655-0.032-0.863-0.057V16.523z M8.264,21.002
			c0.048,0.016,0.128,0.016,0.184,0.016c0.503,0,0.943-0.496,0.943-1.982c0-1.104-0.288-1.775-0.919-1.775
			c-0.072,0-0.144,0-0.208,0.023V21.002z"/>
		<path d="M14.438,19.945c-0.023-0.512-0.063-1.207-0.047-1.782h-0.024c-0.097,0.575-0.239,1.239-0.344,1.655l-0.464,1.927h-0.744
			l-0.447-1.896c-0.104-0.432-0.248-1.104-0.328-1.687h-0.024c-0.016,0.583-0.048,1.263-0.08,1.799l-0.088,1.871h-0.904l0.392-5.39
			h1.103l0.432,1.951c0.152,0.68,0.287,1.279,0.384,1.887h0.017c0.079-0.6,0.199-1.207,0.344-1.887l0.424-1.951h1.103l0.328,5.39
			h-0.936L14.438,19.945z"/>
		<path d="M17.287,16.443v5.39H16.24v-5.39H17.287z"/>
		<path d="M17.952,21.833v-0.704l0.52-0.663c0.672-0.855,1.224-1.567,1.224-2.312c0-0.415-0.232-0.711-0.664-0.711
			c-0.328,0-0.592,0.145-0.783,0.264l-0.184-0.815c0.24-0.151,0.688-0.319,1.159-0.319c1.136,0,1.503,0.76,1.503,1.503
			c0,0.976-0.607,1.759-1.207,2.454l-0.313,0.368v0.017h1.592v0.919H17.952z"/>
	</g>
	<g display="inline">
		<path d="M4.144,16.443v2.16h1.095v-2.16h1.047v5.39H5.239v-2.255H4.144v2.255H3.096v-5.39H4.144z"/>
		<path d="M7.216,16.523C7.48,16.46,7.864,16.42,8.28,16.42c0.68,0,1.151,0.16,1.495,0.48c0.464,0.415,0.704,1.127,0.704,2.174
			c0,1.088-0.28,1.863-0.751,2.279c-0.36,0.352-0.896,0.52-1.647,0.52c-0.328,0-0.655-0.032-0.863-0.057V16.523z M8.264,21.002
			c0.048,0.016,0.128,0.016,0.184,0.016c0.503,0,0.943-0.496,0.943-1.982c0-1.104-0.288-1.775-0.919-1.775
			c-0.072,0-0.144,0-0.208,0.023V21.002z"/>
		<path d="M14.438,19.945c-0.023-0.512-0.063-1.207-0.047-1.782h-0.024c-0.097,0.575-0.239,1.239-0.344,1.655l-0.464,1.927h-0.744
			l-0.447-1.896c-0.104-0.432-0.248-1.104-0.328-1.687h-0.024c-0.016,0.583-0.048,1.263-0.08,1.799l-0.088,1.871h-0.904l0.392-5.39
			h1.103l0.432,1.951c0.152,0.68,0.287,1.279,0.384,1.887h0.017c0.079-0.6,0.199-1.207,0.344-1.887l0.424-1.951h1.103l0.328,5.39
			h-0.936L14.438,19.945z"/>
		<path d="M17.287,16.443v5.39H16.24v-5.39H17.287z"/>
		<path d="M17.952,21.833v-0.704l0.52-0.663c0.672-0.855,1.224-1.567,1.224-2.312c0-0.415-0.232-0.711-0.664-0.711
			c-0.328,0-0.592,0.145-0.783,0.264l-0.184-0.815c0.24-0.151,0.688-0.319,1.159-0.319c1.136,0,1.503,0.76,1.503,1.503
			c0,0.976-0.607,1.759-1.207,2.454l-0.313,0.368v0.017h1.592v0.919H17.952z"/>
	</g>
	<g display="inline">
		<path d="M3.8,2.507c0.574-0.112,1.303-0.182,2.003-0.182c1.009,0,1.905,0.14,2.521,0.7c0.574,0.518,0.742,1.148,0.742,1.961
			c0,1.009-0.49,1.919-1.457,2.367v0.028c0.644,0.252,0.966,0.854,1.148,1.863c0.182,1.051,0.435,2.213,0.603,2.563H7.442
			C7.33,11.542,7.12,10.59,6.979,9.553C6.812,8.377,6.517,8.041,5.901,8.041H5.635v3.768H3.8V2.507z M5.635,6.626h0.322
			c0.798,0,1.261-0.645,1.261-1.471c0-0.798-0.322-1.373-1.149-1.4c-0.154,0-0.336,0.014-0.434,0.056V6.626z"/>
		<path d="M14.371,7.663h-2.157v2.549h2.438v1.597h-4.273V2.368h4.104v1.597h-2.269v2.171h2.157V7.663z"/>
		<path d="M20.42,11.668c-0.266,0.126-0.785,0.224-1.429,0.224c-2.409,0-3.558-1.989-3.558-4.665c0-3.558,1.975-4.944,3.81-4.944
			c0.645,0,1.093,0.126,1.274,0.252L20.21,4.077C20,3.979,19.762,3.895,19.355,3.895c-1.037,0-1.975,0.896-1.975,3.235
			c0,2.255,0.854,3.138,1.975,3.138c0.309,0,0.658-0.07,0.883-0.14L20.42,11.668z"/>
	</g>
	<g display="inline">
		<path d="M3.8,2.507c0.574-0.112,1.303-0.182,2.003-0.182c1.009,0,1.905,0.14,2.521,0.7c0.574,0.518,0.742,1.148,0.742,1.961
			c0,1.009-0.49,1.919-1.457,2.367v0.028c0.644,0.252,0.966,0.854,1.148,1.863c0.182,1.051,0.435,2.213,0.603,2.563H7.442
			C7.33,11.542,7.12,10.59,6.979,9.553C6.812,8.377,6.517,8.041,5.901,8.041H5.635v3.768H3.8V2.507z M5.635,6.626h0.322
			c0.798,0,1.261-0.645,1.261-1.471c0-0.798-0.322-1.373-1.149-1.4c-0.154,0-0.336,0.014-0.434,0.056V6.626z"/>
		<path d="M14.371,7.663h-2.157v2.549h2.438v1.597h-4.273V2.368h4.104v1.597h-2.269v2.171h2.157V7.663z"/>
		<path d="M20.42,11.668c-0.266,0.126-0.785,0.224-1.429,0.224c-2.409,0-3.558-1.989-3.558-4.665c0-3.558,1.975-4.944,3.81-4.944
			c0.645,0,1.093,0.126,1.274,0.252L20.21,4.077C20,3.979,19.762,3.895,19.355,3.895c-1.037,0-1.975,0.896-1.975,3.235
			c0,2.255,0.854,3.138,1.975,3.138c0.309,0,0.658-0.07,0.883-0.14L20.42,11.668z"/>
	</g>
	<g display="inline">
		<path d="M3.8,2.507c0.574-0.112,1.303-0.182,2.003-0.182c1.009,0,1.905,0.14,2.521,0.7c0.574,0.518,0.742,1.148,0.742,1.961
			c0,1.009-0.49,1.919-1.457,2.367v0.028c0.644,0.252,0.966,0.854,1.148,1.863c0.182,1.051,0.435,2.213,0.603,2.563H7.442
			C7.33,11.542,7.12,10.59,6.979,9.553C6.812,8.377,6.517,8.041,5.901,8.041H5.635v3.768H3.8V2.507z M5.635,6.626h0.322
			c0.798,0,1.261-0.645,1.261-1.471c0-0.798-0.322-1.373-1.149-1.4c-0.154,0-0.336,0.014-0.434,0.056V6.626z"/>
		<path d="M14.371,7.663h-2.157v2.549h2.438v1.597h-4.273V2.368h4.104v1.597h-2.269v2.171h2.157V7.663z"/>
		<path d="M20.42,11.668c-0.266,0.126-0.785,0.224-1.429,0.224c-2.409,0-3.558-1.989-3.558-4.665c0-3.558,1.975-4.944,3.81-4.944
			c0.645,0,1.093,0.126,1.274,0.252L20.21,4.077C20,3.979,19.762,3.895,19.355,3.895c-1.037,0-1.975,0.896-1.975,3.235
			c0,2.255,0.854,3.138,1.975,3.138c0.309,0,0.658-0.07,0.883-0.14L20.42,11.668z"/>
	</g>
</g>
<g id="_x31_-YES_1_" display="none">
	<g display="inline">
		<path d="M4.475,16.443v2.16H5.57v-2.16h1.047v5.39H5.57v-2.255H4.475v2.255H3.428v-5.39H4.475z"/>
		<path d="M7.548,16.523c0.264-0.063,0.647-0.104,1.063-0.104c0.68,0,1.151,0.16,1.495,0.48c0.464,0.415,0.704,1.127,0.704,2.174
			c0,1.088-0.28,1.863-0.751,2.279c-0.36,0.352-0.896,0.52-1.647,0.52c-0.328,0-0.655-0.032-0.863-0.057V16.523z M8.595,21.002
			c0.048,0.016,0.128,0.016,0.184,0.016c0.503,0,0.943-0.496,0.943-1.982c0-1.104-0.288-1.775-0.919-1.775
			c-0.072,0-0.144,0-0.208,0.023V21.002z"/>
		<path d="M14.77,19.945c-0.023-0.512-0.064-1.207-0.048-1.782h-0.024c-0.096,0.575-0.239,1.239-0.344,1.655l-0.463,1.927h-0.744
			l-0.447-1.896c-0.104-0.432-0.248-1.104-0.328-1.687h-0.024c-0.016,0.583-0.048,1.263-0.08,1.799l-0.088,1.871h-0.904l0.392-5.39
			h1.103l0.433,1.951c0.151,0.68,0.287,1.279,0.383,1.887h0.017c0.079-0.6,0.2-1.207,0.344-1.887l0.424-1.951h1.103l0.328,5.39
			h-0.936L14.77,19.945z"/>
		<path d="M17.619,16.443v5.39h-1.047v-5.39H17.619z"/>
		<path d="M19.523,17.619h-0.017l-0.88,0.456l-0.176-0.823l1.191-0.616h0.92v5.197h-1.039V17.619z"/>
	</g>
	<g display="inline">
		<path d="M4.475,16.443v2.16H5.57v-2.16h1.047v5.39H5.57v-2.255H4.475v2.255H3.428v-5.39H4.475z"/>
		<path d="M7.548,16.523c0.264-0.063,0.647-0.104,1.063-0.104c0.68,0,1.151,0.16,1.495,0.48c0.464,0.415,0.704,1.127,0.704,2.174
			c0,1.088-0.28,1.863-0.751,2.279c-0.36,0.352-0.896,0.52-1.647,0.52c-0.328,0-0.655-0.032-0.863-0.057V16.523z M8.595,21.002
			c0.048,0.016,0.128,0.016,0.184,0.016c0.503,0,0.943-0.496,0.943-1.982c0-1.104-0.288-1.775-0.919-1.775
			c-0.072,0-0.144,0-0.208,0.023V21.002z"/>
		<path d="M14.77,19.945c-0.023-0.512-0.064-1.207-0.048-1.782h-0.024c-0.096,0.575-0.239,1.239-0.344,1.655l-0.463,1.927h-0.744
			l-0.447-1.896c-0.104-0.432-0.248-1.104-0.328-1.687h-0.024c-0.016,0.583-0.048,1.263-0.08,1.799l-0.088,1.871h-0.904l0.392-5.39
			h1.103l0.433,1.951c0.151,0.68,0.287,1.279,0.383,1.887h0.017c0.079-0.6,0.2-1.207,0.344-1.887l0.424-1.951h1.103l0.328,5.39
			h-0.936L14.77,19.945z"/>
		<path d="M17.619,16.443v5.39h-1.047v-5.39H17.619z"/>
		<path d="M19.523,17.619h-0.017l-0.88,0.456l-0.176-0.823l1.191-0.616h0.92v5.197h-1.039V17.619z"/>
	</g>
	<g display="inline">
		<path d="M4.475,16.443v2.16H5.57v-2.16h1.047v5.39H5.57v-2.255H4.475v2.255H3.428v-5.39H4.475z"/>
		<path d="M7.548,16.523c0.264-0.063,0.647-0.104,1.063-0.104c0.68,0,1.151,0.16,1.495,0.48c0.464,0.415,0.704,1.127,0.704,2.174
			c0,1.088-0.28,1.863-0.751,2.279c-0.36,0.352-0.896,0.52-1.647,0.52c-0.328,0-0.655-0.032-0.863-0.057V16.523z M8.595,21.002
			c0.048,0.016,0.128,0.016,0.184,0.016c0.503,0,0.943-0.496,0.943-1.982c0-1.104-0.288-1.775-0.919-1.775
			c-0.072,0-0.144,0-0.208,0.023V21.002z"/>
		<path d="M14.77,19.945c-0.023-0.512-0.064-1.207-0.048-1.782h-0.024c-0.096,0.575-0.239,1.239-0.344,1.655l-0.463,1.927h-0.744
			l-0.447-1.896c-0.104-0.432-0.248-1.104-0.328-1.687h-0.024c-0.016,0.583-0.048,1.263-0.08,1.799l-0.088,1.871h-0.904l0.392-5.39
			h1.103l0.433,1.951c0.151,0.68,0.287,1.279,0.383,1.887h0.017c0.079-0.6,0.2-1.207,0.344-1.887l0.424-1.951h1.103l0.328,5.39
			h-0.936L14.77,19.945z"/>
		<path d="M17.619,16.443v5.39h-1.047v-5.39H17.619z"/>
		<path d="M19.523,17.619h-0.017l-0.88,0.456l-0.176-0.823l1.191-0.616h0.92v5.197h-1.039V17.619z"/>
	</g>
	<g display="inline">
		<path d="M3.632,11.666V7.801L0.648,2.226h2.438l0.966,2.269c0.294,0.687,0.49,1.19,0.729,1.807h0.028
			c0.21-0.588,0.435-1.135,0.714-1.807l0.953-2.269h2.396L5.762,7.73v3.937L3.632,11.666L3.632,11.666z"/>
		<path d="M15.506,7.674h-3.474v2.242h3.88v1.75H9.889v-9.44h5.827v1.751h-3.684v1.961h3.474V7.674z"/>
		<path d="M17.436,9.467c0.573,0.295,1.455,0.59,2.366,0.59c0.98,0,1.499-0.406,1.499-1.022c0-0.589-0.447-0.925-1.583-1.331
			c-1.569-0.546-2.591-1.415-2.591-2.787c0-1.611,1.344-2.844,3.571-2.844c1.063,0,1.849,0.224,2.409,0.476L22.63,4.271
			c-0.378-0.182-1.051-0.448-1.976-0.448c-0.924,0-1.372,0.42-1.372,0.911c0,0.602,0.532,0.868,1.752,1.331
			c1.666,0.616,2.45,1.485,2.45,2.815c0,1.583-1.219,2.929-3.811,2.929c-1.078,0-2.143-0.281-2.676-0.574L17.436,9.467z"/>
	</g>
</g>
</svg>
