<svg width="16" height="16" viewBox="0 0 16 16" version="1.1" xmlns="http://www.w3.org/2000/svg" xmlns:xlink="http://www.w3.org/1999/xlink"><path fill-rule="nonzero" fill="#000" d="M9,16 L9,17 L7,17 L7,16 L1,16 L1,9 L-1,9 L8.00163907,0 L13,4.785368 L13,3 L15,3 L15,7.035368 L17,9 L15,9 L15,16 L9,16 Z M9,16 L9,13.5 C9.49775077,13.0022492 10.1813086,12.3186914 11.0506735,11.4493265 C11.1951058,11.4824829 11.3455072,11.5 11.5,11.5 C12.6045695,11.5 13.5,10.6045695 13.5,9.5 C13.5,8.3954305 12.6045695,7.5 11.5,7.5 C10.3954305,7.5 9.5,8.3954305 9.5,9.5 C9.5,9.65449279 9.5175171,9.80489423 9.55067348,9.94932652 L9,10.5 L9,7.73243561 C9.59780137,7.38662619 10,6.74028236 10,6 C10,4.8954305 9.1045695,4 8,4 C6.8954305,4 6,4.8954305 6,6 C6,6.74028236 6.40219863,7.38662619 7,7.73243561 L7,10.5 L6.44932652,9.94932652 C6.4824829,9.80489423 6.5,9.65449279 6.5,9.5 C6.5,8.3954305 5.6045695,7.5 4.5,7.5 C3.3954305,7.5 2.5,8.3954305 2.5,9.5 C2.5,10.6045695 3.3954305,11.5 4.5,11.5 C4.65352068,11.5 4.80300134,11.4827027 4.9465994,11.4499505 C5.81726201,12.3268973 6.50172888,13.0147433 7,13.5134884 L7,16 L9,16 Z M11.5,10 C11.2238576,10 11,9.77614237 11,9.5 C11,9.22385763 11.2238576,9 11.5,9 C11.7761424,9 12,9.22385763 12,9.5 C12,9.77614237 11.7761424,10 11.5,10 Z M4.5,10 C4.22385763,10 4,9.77614237 4,9.5 C4,9.22385763 4.22385763,9 4.5,9 C4.77614237,9 5,9.22385763 5,9.5 C5,9.77614237 4.77614237,10 4.5,10 Z M8,6.5 C7.72385763,6.5 7.5,6.27614237 7.5,6 C7.5,5.72385763 7.72385763,5.5 8,5.5 C8.27614237,5.5 8.5,5.72385763 8.5,6 C8.5,6.27614237 8.27614237,6.5 8,6.5 Z" id="house-small-tree"/></svg>