<svg width="92" height="136" viewBox="0 0 92 136" fill="none" xmlns="http://www.w3.org/2000/svg">
<path d="M76.38 104.9H3.03C2.24231 104.9 1.48688 105.213 0.929897 105.77C0.372914 106.327 0.0600052 107.082 0.0600052 107.87V132.47C0.0600052 133.258 0.372914 134.013 0.929897 134.57C1.48688 135.127 2.24231 135.44 3.03 135.44H12.36C13.1477 135.44 13.9031 135.127 14.4601 134.57C15.0171 134.013 15.33 133.258 15.33 132.47V120.17H76.39V132.47C76.39 133.258 76.7029 134.013 77.2599 134.57C77.8169 135.127 78.5723 135.44 79.36 135.44H88.69C89.4777 135.44 90.2331 135.127 90.7901 134.57C91.3471 134.013 91.66 133.258 91.66 132.47V107.87C91.66 107.082 91.3471 106.327 90.7901 105.77C90.2331 105.213 89.4777 104.9 88.69 104.9H76.39H76.38ZM50.04 2.24996C47.73 -0.0600439 43.95 -0.0600439 41.65 2.24996L4.25 39.65C1.94 41.96 0.0500031 46.52 0.0500031 49.78V83.7C0.0500031 86.96 2.72 89.64 5.99 89.64H85.7C88.96 89.64 91.64 86.97 91.64 83.7V49.78C91.64 46.52 89.75 41.96 87.44 39.65L50.04 2.24996Z" fill="#18BCF2"/>
</svg>
