<svg width="94" height="72" viewBox="0 0 94 72" fill="none" xmlns="http://www.w3.org/2000/svg">
<path d="M63.1358 38.5084C63.9608 38.4334 64.5688 37.7037 64.4938 36.8787C64.4188 36.0537 63.6892 35.4457 62.8642 35.5207L63.1358 38.5084ZM46.6358 40.0084L63.1358 38.5084L62.8642 35.5207L46.3642 37.0207L46.6358 40.0084Z" fill="#00AFFF" fill-opacity="0.3"/>
<path d="M38.5 22L45.9722 37.4115C46.2967 38.0807 46.223 38.8747 45.781 39.4728L38 50" stroke="#00AFFF" stroke-opacity="0.3" stroke-width="3" stroke-linecap="round" stroke-linejoin="bevel"/>
<circle cx="47" cy="36" r="34" fill="white"/>
<circle cx="47" cy="36" r="33.5" stroke="black" stroke-opacity="0.12"/>
<path d="M41.8777 12.5216C43.4905 12.1798 45.1631 12 46.8777 12C58.2401 12 67.7582 19.8959 70.2445 30.5M40 59C42.1788 59.6506 44.4874 60 46.8777 60C56.9498 60 65.5728 53.7955 69.1332 45" stroke="#00AFFF" stroke-opacity="0.3" stroke-width="3" stroke-linecap="round" stroke-linejoin="bevel"/>
<path d="M38.5 22L45.9722 37.4115C46.2967 38.0807 46.223 38.8747 45.781 39.4728L38 50" stroke="#00AFFF" stroke-opacity="0.3" stroke-width="3" stroke-linecap="round" stroke-linejoin="bevel"/>
<mask id="mask0_1110_23775" style="mask-type:alpha" maskUnits="userSpaceOnUse" x="38" y="27" width="18" height="18">
<path d="M53.75 42.075C53.75 42.4462 53.4462 42.75 53.075 42.75H40.925C40.5538 42.75 40.25 42.4462 40.25 42.075V36.675C40.25 36.3037 40.4649 35.7851 40.7276 35.5224L46.5224 29.7275C46.7851 29.4649 47.2143 29.4649 47.477 29.7275L53.2724 35.523C53.5351 35.7857 53.75 36.3043 53.75 36.6755V42.075Z" fill="black"/>
</mask>
<g mask="url(#mask0_1110_23775)">
<rect x="38" y="27" width="18" height="18" fill="#212121"/>
</g>
<path d="M63.5 39.4999C64.3284 39.4999 65 38.8283 65 37.9999C65 37.1715 64.3284 36.4999 63.5 36.4999L63.5 39.4999ZM49.5 39.4999L63.5 39.4999L63.5 36.4999L49.5 36.4999L49.5 39.4999Z" fill="#00AFFF" fill-opacity="0.3"/>
<rect x="31" y="11" width="8" height="8" rx="4" fill="#00AFFF" fill-opacity="0.6"/>
<rect x="30" y="52" width="8" height="8" rx="4" fill="#00AFFF" fill-opacity="0.6"/>
<path d="M29.5715 19.5C25.4983 23.801 23 29.6087 23 36C23 41.9085 25.1351 47.3183 28.6759 51.5" stroke="#00AFFF" stroke-opacity="0.3" stroke-width="3" stroke-linecap="round" stroke-linejoin="bevel"/>
<path d="M68 37.9999C68 36.343 69.3431 34.9999 71 34.9999C72.6569 34.9999 74 36.343 74 37.9999C74 39.6567 72.6569 40.9999 71 40.9999C69.3431 40.9999 68 39.6567 68 37.9999Z" stroke="#00AFFF" stroke-width="2"/>
</svg>
