<svg xmlns="http://www.w3.org/2000/svg" width="640" height="640" viewBox="0 0 240 240"><path d="m121.51 15.882c-3.262 0-6.523 1.291-8.996 3.867l-83.848 87.354c-.619.644-1.223 1.368-1.807 2.154-.588.789-1.151 1.638-1.688 2.534-2.593 4.325-4.552 9.749-5.232 14.555-.026.18-.076.369-.094.548-.121.987-.184 1.944-.184 2.857v80.124a12.731 12.731 90 0012.731 12.731h78.313l-34.484-35.93a17.399 17.399 90 1110.803-11.25l26.847 27.972v-102.48a17.399 17.399 90 1115.276 0v71.87l26.702-27.82a17.399 17.399 90 1110.566 11.505l-37.269 38.831v27.299h81.74a12.471 12.471 90 0012.471-12.471v-80.375c0-.912-.059-1.868-.184-2.855-.603-4.935-2.636-10.617-5.326-15.105-.537-.896-1.101-1.745-1.684-2.53-.588-.79-1.191-1.513-1.81-2.158l-83.848-87.363c-2.473-2.577-5.735-3.866-8.995-3.864"/></svg>