<?xml version="1.0" standalone="no"?>
<!DOCTYPE svg PUBLIC "-//W3C//DTD SVG 20010904//EN"
 "http://www.w3.org/TR/2001/REC-SVG-20010904/DTD/svg10.dtd">
<svg version="1.0" xmlns="http://www.w3.org/2000/svg"
 width="480.000000pt" height="480.000000pt" viewBox="0 0 480.000000 480.000000"
 preserveAspectRatio="xMidYMid meet">
<g transform="translate(0.000000,480.000000) scale(0.100000,-0.100000)"
fill="#000000" stroke="none">
<path d="M2313 4666 c-23 -7 -56 -23 -75 -34 -47 -30 -2059 -2048 -2095 -2102
-45 -67 -77 -135 -109 -230 l-29 -85 0 -995 0 -995 27 -51 c31 -59 93 -118
152 -145 39 -18 83 -19 1001 -19 l960 0 -406 405 c-395 395 -406 406 -433 395
-15 -5 -63 -10 -107 -10 -429 0 -566 577 -181 767 67 34 86 38 164 42 105 4
165 -13 246 -67 113 -74 175 -190 176 -327 1 -44 -3 -96 -7 -115 l-8 -35 316
-315 315 -315 0 1160 -1 1160 -51 35 c-260 177 -226 567 62 704 82 39 209 48
293 21 239 -78 354 -352 242 -575 -32 -63 -89 -125 -141 -156 l-44 -26 0 -811
0 -812 315 315 c218 217 313 320 309 330 -14 35 -16 134 -4 190 26 122 111
227 230 284 82 39 209 48 293 21 115 -38 214 -130 258 -242 19 -46 23 -78 24
-153 0 -86 -3 -101 -32 -163 -40 -84 -118 -163 -198 -202 -49 -23 -77 -29
-150 -33 -50 -2 -108 1 -130 7 l-40 11 -437 -438 -438 -437 0 -307 0 -308 998
0 c981 0 998 1 1042 21 58 26 115 81 148 144 l27 50 0 995 0 995 -33 95 c-72
209 -6 135 -1147 1278 -840 843 -1040 1037 -1082 1059 -64 31 -159 39 -220 19z"/>
</g>
</svg>
