<svg width="1721" height="240" viewBox="0 0 1721 240" fill="none" xmlns="http://www.w3.org/2000/svg">
<path d="M240 218.762C240 227.012 233.25 233.762 225 233.762H15C6.75 233.762 0 227.012 0 218.762V128.762C0 120.512 4.77 108.993 10.61 103.153L109.39 4.3725C115.22 -1.4575 124.77 -1.4575 130.6 4.3725L229.39 103.162C235.22 108.993 240 120.522 240 128.772V218.772V218.762Z" fill="#F2F4F9"/>
<path d="M229.39 103.153L130.61 4.3725C124.78 -1.4575 115.23 -1.4575 109.4 4.3725L10.61 103.153C4.78 108.983 0 120.512 0 128.762V218.762C0 227.012 6.75 233.762 15 233.762H107.27L66.64 193.132C64.55 193.852 62.32 194.262 60 194.262C48.7 194.262 39.5 185.062 39.5 173.762C39.5 162.462 48.7 153.262 60 153.262C71.3 153.262 80.5 162.462 80.5 173.762C80.5 176.092 80.09 178.322 79.37 180.412L111 212.042V96.1625C104.2 92.8225 99.5 85.8425 99.5 77.7725C99.5 66.4725 108.7 57.2725 120 57.2725C131.3 57.2725 140.5 66.4725 140.5 77.7725C140.5 85.8425 135.8 92.8225 129 96.1625V177.432L160.46 145.972C159.84 144.012 159.5 141.932 159.5 139.772C159.5 128.472 168.7 119.272 180 119.272C191.3 119.272 200.5 128.472 200.5 139.772C200.5 151.072 191.3 160.272 180 160.272C177.5 160.272 175.12 159.803 172.91 158.982L129 202.892V233.772H225C233.25 233.772 240 227.022 240 218.772V128.772C240 120.522 235.23 109.003 229.39 103.162V103.153Z" fill="#18BCF2"/>
<path d="M336.04 46.5558H360.8V107.556L425.16 107.756V46.5558H450.16V192.556H425.16V129.776L360.8 129.576V192.576H336L336.04 46.5558Z" fill="#1D2126"/>
<path d="M522.8 91.1858C537.9 91.1858 550.203 96.0358 559.71 105.736C569.217 115.436 573.97 127.906 573.97 143.146C573.97 158.312 569.217 170.746 559.71 180.446C550.203 190.146 537.9 194.996 522.8 194.996C507.56 194.996 495.19 190.146 485.69 180.446C476.19 170.746 471.437 158.312 471.43 143.146C471.43 127.812 476.183 115.329 485.69 105.696C495.197 96.0625 507.567 91.2258 522.8 91.1858ZM522.8 173.706C530.873 173.706 537.433 170.859 542.48 165.166C547.527 159.473 550.047 152.066 550.04 142.946C550.04 133.839 547.52 126.466 542.48 120.826C537.44 115.186 530.88 112.372 522.8 112.386C514.533 112.386 507.867 115.199 502.8 120.826C497.733 126.452 495.193 133.826 495.18 142.946C495.18 152.066 497.72 159.473 502.8 165.166C507.88 170.859 514.547 173.706 522.8 173.706Z" fill="#1D2126"/>
<path d="M742.68 129.776V192.566H719.68V133.376C719.68 126.549 717.923 121.216 714.41 117.376C710.897 113.536 706.11 111.612 700.05 111.606C693.61 111.606 688.467 113.706 684.62 117.906C680.773 122.106 678.853 127.982 678.86 135.536V192.536H655.67V133.376C655.67 126.549 653.96 121.216 650.54 117.376C647.12 113.536 642.383 111.612 636.33 111.606C629.89 111.606 624.717 113.706 620.81 117.906C616.903 122.106 614.95 127.982 614.95 135.536V192.536H591.32V93.9258H613.32L614.1 103.396C619.833 94.9958 629.167 90.7958 642.1 90.7958C649.653 90.7958 656.197 92.3592 661.73 95.4858C667.257 98.608 671.662 103.391 674.32 109.156C676.708 103.455 680.931 98.7141 686.32 95.6858C691.88 92.4258 698.503 90.7958 706.19 90.7958C717.39 90.7958 726.277 94.2458 732.85 101.146C739.423 108.046 742.7 117.589 742.68 129.776Z" fill="#1D2126"/>
<path d="M857.28 151.936H781.7C782.48 159.356 785.28 165.022 790.1 168.936C794.92 172.849 801.04 174.796 808.46 174.776C820.5 174.776 828.93 169.776 833.75 159.776L853.48 167.586C849.937 176.043 843.799 183.155 835.95 187.896C827.95 192.789 818.787 195.233 808.46 195.226C793.873 195.226 782.04 190.456 772.96 180.916C763.88 171.376 759.337 158.859 759.33 143.366C759.33 127.872 763.907 115.276 773.06 105.576C782.213 95.8758 794.173 91.0258 808.94 91.0258C823.46 91.0258 835.147 95.8092 844 105.376C852.853 114.942 857.28 127.542 857.28 143.176V151.936ZM782.09 135.326H833.26C832.8 127.326 830.377 121.222 825.99 117.016C821.603 112.809 815.693 110.729 808.26 110.776C800.927 110.776 794.927 112.906 790.26 117.166C785.593 121.426 782.87 127.479 782.09 135.326Z" fill="#1D2126"/>
<path d="M1009.53 158.576H953.97L941.97 192.576H916.38L969.11 46.5758H994.7L1047.53 192.576H1021.36L1009.53 158.576ZM1002.31 137.576L981.9 79.1758L961.29 137.576H1002.31Z" fill="#1D2126"/>
<path d="M1093.86 176.146C1098.74 176.146 1102.6 175.186 1105.43 173.266C1106.82 172.335 1107.94 171.057 1108.69 169.56C1109.43 168.062 1109.78 166.396 1109.68 164.726C1109.68 159.459 1106.13 155.942 1099.04 154.176L1085.46 150.566C1066.79 145.486 1057.46 135.882 1057.46 121.756C1057.46 112.709 1060.75 105.319 1067.32 99.5858C1073.89 93.8525 1082.75 90.9892 1093.88 90.9958C1103.84 90.9958 1112.17 93.2725 1118.88 97.8258C1122.12 99.9335 1124.89 102.687 1127.01 105.913C1129.14 109.139 1130.57 112.769 1131.23 116.576L1110.04 121.576C1109.86 119.893 1109.33 118.267 1108.48 116.804C1107.63 115.34 1106.48 114.073 1105.11 113.086C1102.04 110.929 1098.36 109.83 1094.61 109.956C1090.38 109.956 1086.96 111.016 1084.36 113.136C1083.11 114.108 1082.1 115.362 1081.42 116.795C1080.74 118.228 1080.41 119.8 1080.45 121.386C1080.42 122.669 1080.67 123.943 1081.17 125.123C1081.68 126.303 1082.43 127.361 1083.38 128.226C1085.34 130.046 1088.37 131.509 1092.46 132.616L1105.84 135.936C1114.76 138.349 1121.56 141.996 1126.25 146.876C1128.56 149.271 1130.36 152.102 1131.57 155.202C1132.77 158.303 1133.34 161.612 1133.25 164.936C1133.25 174.189 1129.77 181.546 1122.8 187.006C1115.83 192.466 1106.23 195.202 1093.99 195.216C1082.66 195.216 1073.57 192.726 1066.74 187.746C1063.44 185.405 1060.65 182.403 1058.57 178.932C1056.48 175.46 1055.14 171.593 1054.63 167.576L1076.21 163.766C1076.34 165.583 1076.88 167.347 1077.78 168.928C1078.69 170.509 1079.94 171.865 1081.44 172.896C1084.6 175.066 1088.72 176.146 1093.86 176.146Z" fill="#1D2126"/>
<path d="M1183.46 176.146C1188.35 176.146 1192.2 175.146 1195.04 173.266C1196.43 172.332 1197.55 171.054 1198.29 169.557C1199.03 168.06 1199.37 166.395 1199.28 164.726C1199.28 159.459 1195.73 155.942 1188.64 154.176L1175.07 150.566C1156.4 145.486 1147.07 135.882 1147.07 121.756C1147.07 112.709 1150.36 105.319 1156.93 99.5858C1163.5 93.8525 1172.36 90.9892 1183.49 90.9958C1193.45 90.9958 1201.78 93.2725 1208.49 97.8258C1211.73 99.9347 1214.5 102.688 1216.62 105.914C1218.75 109.14 1220.19 112.769 1220.85 116.576L1199.65 121.576C1199.47 119.893 1198.94 118.267 1198.09 116.804C1197.24 115.34 1196.09 114.073 1194.72 113.086C1191.65 110.929 1187.97 109.83 1184.22 109.956C1179.99 109.956 1176.57 111.016 1173.97 113.136C1172.72 114.11 1171.71 115.363 1171.03 116.796C1170.36 118.229 1170.02 119.801 1170.06 121.386C1170.03 122.669 1170.28 123.943 1170.79 125.123C1171.29 126.303 1172.04 127.361 1172.99 128.226C1174.99 130.046 1177.99 131.506 1182.08 132.616L1195.46 135.936C1204.37 138.349 1211.17 141.996 1215.87 146.876C1218.17 149.272 1219.98 152.103 1221.18 155.203C1222.38 158.304 1222.96 161.612 1222.87 164.936C1222.87 174.189 1219.39 181.546 1212.42 187.006C1205.45 192.466 1195.85 195.202 1183.61 195.216C1172.28 195.216 1163.19 192.726 1156.36 187.746C1153.06 185.405 1150.27 182.403 1148.19 178.932C1146.1 175.46 1144.76 171.593 1144.25 167.576L1165.84 163.766C1165.97 165.582 1166.5 167.346 1167.41 168.927C1168.31 170.508 1169.56 171.864 1171.06 172.896C1174.2 175.066 1178.32 176.146 1183.46 176.146Z" fill="#1D2126"/>
<path d="M1237.91 59.7758C1237.88 57.8014 1238.24 55.8401 1238.97 54.0084C1239.71 52.1766 1240.81 50.5117 1242.2 49.1126C1243.6 47.7135 1245.26 46.6086 1247.09 45.8636C1248.92 45.1186 1250.88 44.7487 1252.85 44.7758C1254.81 44.7457 1256.75 45.12 1258.56 45.8754C1260.36 46.6308 1262 47.751 1263.35 49.1658C1266.14 51.9758 1267.71 55.7755 1267.71 59.7358C1267.71 63.6962 1266.14 67.4958 1263.35 70.3058C1262 71.7359 1260.38 72.8702 1258.57 73.6363C1256.76 74.4025 1254.81 74.7837 1252.85 74.7558C1250.88 74.7815 1248.93 74.3995 1247.11 73.6337C1245.29 72.8679 1243.66 71.7349 1242.3 70.3058C1240.9 68.9376 1239.78 67.2994 1239.03 65.4897C1238.27 63.68 1237.89 61.7364 1237.91 59.7758ZM1264.67 93.9558V192.586H1241.03V93.9258L1264.67 93.9558Z" fill="#1D2126"/>
<path d="M1321.85 176.146C1326.73 176.146 1330.59 175.186 1333.42 173.266C1334.81 172.333 1335.93 171.056 1336.68 169.558C1337.42 168.061 1337.76 166.396 1337.67 164.726C1337.67 159.459 1334.12 155.942 1327.02 154.176L1313.45 150.566C1294.78 145.486 1285.45 135.882 1285.45 121.756C1285.45 112.709 1288.74 105.319 1295.31 99.5858C1301.88 93.8525 1310.74 90.9892 1321.88 90.9958C1331.84 90.9958 1340.17 93.2725 1346.88 97.8258C1350.11 99.9366 1352.88 102.691 1355.01 105.916C1357.13 109.142 1358.57 112.77 1359.23 116.576L1338.04 121.576C1337.86 119.893 1337.33 118.267 1336.48 116.804C1335.63 115.34 1334.48 114.073 1333.11 113.086C1330.04 110.932 1326.36 109.833 1322.61 109.956C1318.38 109.956 1314.96 111.016 1312.35 113.136C1311.1 114.111 1310.1 115.365 1309.42 116.797C1308.74 118.23 1308.41 119.802 1308.45 121.386C1308.42 122.669 1308.67 123.943 1309.17 125.123C1309.68 126.303 1310.43 127.361 1311.38 128.226C1313.33 130.046 1316.36 131.509 1320.46 132.616L1333.84 135.936C1342.76 138.349 1349.56 141.996 1354.25 146.876C1356.56 149.271 1358.36 152.102 1359.57 155.202C1360.77 158.303 1361.34 161.612 1361.25 164.936C1361.25 174.189 1357.77 181.546 1350.8 187.006C1343.83 192.466 1334.23 195.202 1321.99 195.216C1310.66 195.216 1301.58 192.726 1294.75 187.746C1291.44 185.408 1288.66 182.407 1286.57 178.935C1284.49 175.462 1283.15 171.594 1282.64 167.576L1304.22 163.766C1304.35 165.582 1304.88 167.346 1305.79 168.927C1306.69 170.508 1307.94 171.864 1309.44 172.896C1312.58 175.066 1316.7 176.146 1321.85 176.146Z" fill="#1D2126"/>
<path d="M1431.86 192.556C1426.23 193.913 1420.46 194.667 1414.67 194.806C1404.71 194.806 1396.95 192.069 1391.38 186.596C1385.81 181.122 1383.03 172.986 1383.03 162.186V113.946H1367.89V93.9458H1383.03V63.1658H1406.47V93.9258H1429.22V113.926H1406.47V157.926C1406.47 168.592 1410.6 173.926 1418.87 173.926C1422.29 173.782 1425.67 173.09 1428.87 171.876L1431.86 192.556Z" fill="#1D2126"/>
<path d="M1511.01 192.556C1510.16 188.863 1509.6 185.108 1509.35 181.326C1506.28 185.729 1502.08 189.222 1497.19 191.436C1491.48 194.039 1485.26 195.324 1478.98 195.196C1468.17 195.196 1459.5 192.316 1452.98 186.556C1446.46 180.796 1443.21 172.999 1443.22 163.166C1443.22 153.526 1446.43 145.989 1452.84 140.556C1459.25 135.122 1468.02 132.402 1479.15 132.396H1508.8V128.596C1508.8 122.409 1506.99 117.786 1503.38 114.726C1499.77 111.666 1494.71 110.136 1488.2 110.136C1476.68 110.136 1468.41 114.952 1463.39 124.586L1446.21 114.526C1454.54 98.8392 1468.96 90.9958 1489.47 90.9958C1501.9 90.9958 1512.08 94.1858 1520.03 100.566C1527.98 106.946 1531.98 117.329 1532.03 131.716V170.976C1532.03 182.103 1532.61 189.296 1533.78 192.556H1511.01ZM1509.01 148.706H1484.69C1479.16 148.706 1474.87 149.976 1471.8 152.516C1470.28 153.786 1469.08 155.391 1468.28 157.203C1467.48 159.016 1467.12 160.988 1467.21 162.966C1467.21 167.586 1468.77 171.102 1471.9 173.516C1475.03 175.926 1479.48 177.126 1485.28 177.126C1492.24 177.126 1497.94 174.929 1502.37 170.536C1506.8 166.143 1509.02 159.616 1509.01 150.956V148.706Z" fill="#1D2126"/>
<path d="M1645.53 131.716V192.556H1622V136.776C1622 127.396 1619.79 120.982 1615.36 117.536C1611.18 114.105 1605.92 112.272 1600.51 112.366C1597.37 112.272 1594.24 112.802 1591.31 113.925C1588.38 115.047 1585.69 116.74 1583.42 118.906C1578.87 123.266 1576.6 129.482 1576.59 137.556V192.556H1552.96V93.9258H1575.12L1575.9 104.566C1578.96 100.186 1583.19 96.7524 1588.11 94.6558C1593.6 92.1838 1599.57 90.935 1605.59 90.9958C1618.35 90.9958 1628.2 94.5258 1635.13 101.586C1642.06 108.646 1645.53 118.689 1645.53 131.716Z" fill="#1D2126"/>
<path d="M1720.98 192.556C1715.35 193.902 1709.59 194.646 1703.8 194.776C1693.84 194.776 1686.08 192.039 1680.51 186.566C1674.94 181.092 1672.16 172.956 1672.16 162.156V113.946H1657.02V93.9458H1672.16V63.1658H1695.59V93.9258H1718.35V113.926H1695.59V157.926C1695.59 168.592 1699.73 173.926 1708 173.926C1711.42 173.782 1714.8 173.09 1718 171.876L1720.98 192.556Z" fill="#1D2126"/>
</svg>
