<svg width="1578" height="356" viewBox="0 0 1578 356" fill="none" xmlns="http://www.w3.org/2000/svg">
<path d="M130.992 4.56406C124.939 -1.52135 115.034 -1.52135 109.008 4.56406L11.0056 103.09C4.95251 109.175 0 121.188 0 129.776V219.134C0 227.722 6.9964 234.783 15.565 234.783H224.435C232.977 234.783 240 227.749 240 219.134V129.776C240 121.188 235.048 109.175 228.994 103.09L130.992 4.56406Z" fill="#18BCF2"/>
<path d="M228 274.783C234.627 274.783 240 280.155 240 286.783V343.783C240 350.41 234.627 355.783 228 355.783H213C206.373 355.783 201 350.41 201 343.783V313.783H39V343.783C39 350.41 33.6274 355.783 27 355.783H12C5.37258 355.783 0 350.41 0 343.783V286.783C0 280.155 5.37258 274.783 12 274.783H228Z" fill="#F7F6F2"/>
<path d="M394.872 37.7827C405.86 37.7827 416.041 39.762 425.415 43.7465C434.789 47.705 442.731 53.2 449.241 60.2055C455.751 67.211 460.828 75.5967 464.474 85.4148C468.093 95.233 469.916 105.832 469.916 117.239C470.046 128.516 468.275 139.089 464.63 149.011C460.958 158.933 455.829 167.397 449.241 174.429C442.653 181.46 434.633 186.981 425.207 190.966C415.781 194.977 405.6 196.904 394.663 196.774C380.212 196.982 367.219 193.648 355.709 186.799C344.2 179.95 335.321 170.444 329.072 158.282C322.822 146.12 319.802 132.5 320.01 117.447C319.88 106.171 321.651 95.5975 325.296 85.6753C328.967 75.753 334.071 67.2891 340.633 60.2055C347.195 53.1479 355.163 47.6008 364.563 43.6163C373.963 39.6317 384.066 37.6785 394.872 37.8088V37.7827ZM395.054 166.33C408.021 166.33 418.281 161.928 425.858 153.152C433.435 144.35 437.211 132.396 437.211 117.239C437.211 102.082 433.435 89.9463 425.91 81.1699C418.385 72.4195 408.1 68.0444 395.054 68.0444C382.009 68.0444 371.723 72.4195 364.198 81.1699C356.673 89.9202 352.897 101.952 352.897 117.239C352.897 132.526 356.673 144.532 364.198 153.256C371.723 161.98 382.009 166.356 395.054 166.356V166.33Z" fill="#18BCF2"/>
<path d="M606.49 91.3526C606.49 106.77 601.829 119.166 592.533 128.568C583.237 137.969 570.582 142.683 554.542 142.683H524.103V194.221H493.038V40.5172H554.959C571.051 40.5172 583.654 45.0486 592.793 54.1115C601.933 63.1744 606.49 75.5967 606.49 91.3265V91.3526ZM573.681 90.7536C573.681 84.2429 571.572 78.8521 567.327 74.6071C563.083 70.3622 556.964 68.2527 548.944 68.2527H524.103V115.624H548.944C557.016 115.624 563.161 113.333 567.379 108.749C571.598 104.166 573.681 98.1758 573.681 90.7796V90.7536Z" fill="#18BCF2"/>
<path d="M725.123 194.221H628.388V40.5172H725.123V70.0496H659.427V102.837H717.78V130.339H659.427V164.975H725.123V194.221Z" fill="#18BCF2"/>
<path d="M886.434 40.5432V194.247H855.578L788.267 90.1546V194.247H757.411V40.5432H788.267L855.578 144.844V40.5432H886.434Z" fill="#18BCF2"/>
<path d="M974.419 40.5432H1005.48V102.681L1066.39 102.89V40.5432H1097.66V194.247H1066.39V130.599L1005.48 130.182V194.247H974.419V40.5432Z" fill="#18BCF2"/>
<path d="M1195.41 37.7827C1206.4 37.7827 1216.58 39.762 1225.95 43.7465C1235.33 47.705 1243.27 53.2 1249.78 60.2055C1256.29 67.211 1261.37 75.5967 1265.01 85.4148C1268.63 95.233 1270.45 105.832 1270.45 117.239C1270.59 128.516 1268.81 139.089 1265.17 149.011C1261.5 158.933 1256.37 167.397 1249.78 174.429C1243.19 181.46 1235.17 186.981 1225.75 190.966C1216.32 194.977 1206.14 196.904 1195.2 196.774C1180.75 196.982 1167.76 193.648 1156.25 186.799C1144.74 179.95 1135.86 170.444 1129.61 158.282C1123.36 146.12 1120.34 132.5 1120.55 117.447C1120.42 106.171 1122.19 95.5975 1125.84 85.6753C1129.51 75.753 1134.61 67.2891 1141.17 60.2055C1147.73 53.1479 1155.7 47.6008 1165.1 43.6163C1174.5 39.6317 1184.6 37.6785 1195.41 37.8088V37.7827ZM1195.59 166.33C1208.56 166.33 1218.82 161.928 1226.4 153.152C1233.97 144.35 1237.75 132.396 1237.75 117.239C1237.75 102.082 1233.97 89.9463 1226.45 81.1699C1218.92 72.4195 1208.64 68.0444 1195.59 68.0444C1182.55 68.0444 1172.26 72.4195 1164.74 81.1699C1157.21 89.9202 1153.44 101.952 1153.44 117.239C1153.44 132.526 1157.21 144.532 1164.74 153.256C1172.26 161.98 1182.55 166.356 1195.59 166.356V166.33Z" fill="#18BCF2"/>
<path d="M1448.66 40.5432V194.247H1418.02V110.208L1385.13 194.247H1355.71L1323.21 110.833V194.247H1293.58V40.5432H1323.21L1370.47 157.97L1418.02 40.5432H1448.66Z" fill="#18BCF2"/>
<path d="M1578 194.221H1481.27V40.5172H1578V70.0496H1512.3V102.837H1570.66V130.339H1512.3V164.975H1578V194.221Z" fill="#18BCF2"/>
<path d="M337.556 255.265V289.802H381.796V305.576H337.556V353.73H320V238.659H390.145V255.265H337.556Z" fill="#F7F6F2"/>
<path d="M457.116 236.788C465.101 236.684 472.591 238.139 479.536 241.128C486.48 244.116 492.41 248.248 497.299 253.524C502.163 258.799 505.986 265.14 508.743 272.494C511.5 279.874 512.826 287.749 512.722 296.142C512.826 304.588 511.5 312.54 508.743 319.947C505.986 327.379 502.163 333.694 497.299 338.969C492.436 344.218 486.506 348.35 479.536 351.339C472.565 354.327 465.101 355.783 457.116 355.679C449.132 355.783 441.667 354.327 434.723 351.339C427.779 348.35 421.875 344.218 417.011 338.943C412.148 333.668 408.325 327.327 405.594 319.973C402.863 312.618 401.536 304.718 401.64 296.324C401.536 287.93 402.863 280.03 405.594 272.65C408.325 265.27 412.122 258.929 417.011 253.628C421.875 248.352 427.779 244.194 434.723 241.18C441.667 238.165 449.132 236.71 457.116 236.814V236.788ZM430.328 326.781C437.116 334.473 446.089 338.345 457.272 338.345C468.456 338.345 477.429 334.499 484.191 326.781C490.953 319.089 494.334 308.876 494.334 296.142C494.334 283.409 490.953 273.118 484.191 265.426C477.429 257.733 468.456 253.861 457.272 253.861C446.089 253.861 437.09 257.733 430.328 265.452C423.539 273.17 420.158 283.409 420.158 296.142C420.158 308.876 423.539 319.089 430.328 326.781Z" fill="#F7F6F2"/>
<path d="M548.77 238.633V312.202C548.822 320.96 551.397 327.587 556.494 332.057C561.592 336.552 568.302 338.787 576.599 338.787C584.896 338.787 591.242 336.422 596.547 331.719C601.853 327.015 604.506 320.492 604.506 312.202V238.633H622.062V312.904C622.062 319.661 620.839 325.768 618.421 331.251C616.002 336.734 612.699 341.256 608.563 344.764C604.402 348.298 599.616 351.001 594.129 352.924C588.641 354.847 582.815 355.783 576.573 355.783C570.331 355.783 564.739 354.847 559.329 353.002C553.92 351.157 549.082 348.48 544.869 344.998C540.629 341.516 537.3 337.02 534.855 331.485C532.411 325.95 531.188 319.739 531.188 312.904V238.633H548.77Z" fill="#F7F6F2"/>
<path d="M739.438 238.633V353.704H721.882L665.106 266.985V353.704H647.55V238.633H665.106L721.882 325.508V238.633H739.438Z" fill="#F7F6F2"/>
<path d="M862.119 296.298C862.171 304.536 860.741 312.28 857.828 319.479C854.915 326.703 850.884 332.836 845.76 337.878C840.636 342.919 834.472 346.869 827.268 349.702C820.064 352.534 812.391 353.886 804.173 353.73H765.81V238.659H804.173C814.992 238.503 824.875 240.894 833.77 245.857C842.665 250.795 849.635 257.707 854.681 266.569C859.727 275.431 862.197 285.358 862.119 296.324V296.298ZM843.471 296.298C843.471 284.136 839.856 274.261 832.6 266.673C825.343 259.085 815.824 255.265 804.017 255.265H783.522V337.41H804.017C815.928 337.41 825.473 333.642 832.678 326.079C839.882 318.543 843.471 308.59 843.471 296.298Z" fill="#F7F6F2"/>
<path d="M939.208 326.054H893.251L883.264 353.73H865.24L906.854 238.659H925.736L967.583 353.73H949.013L939.182 326.054H939.208ZM934.111 311.137L916.399 260.982L898.531 311.137H934.111Z" fill="#F7F6F2"/>
<path d="M1046.41 255.265H1012.99V353.73H995.282V255.265H961.862V238.659H1046.39V255.265H1046.41Z" fill="#F7F6F2"/>
<path d="M1062.28 353.704V238.633H1079.99V353.704H1062.28Z" fill="#F7F6F2"/>
<path d="M1154.92 236.788C1162.91 236.684 1170.4 238.139 1177.34 241.128C1184.31 244.116 1190.22 248.248 1195.1 253.524C1199.97 258.799 1203.79 265.14 1206.55 272.494C1209.31 279.874 1210.63 287.749 1210.53 296.142C1210.63 304.588 1209.31 312.54 1206.55 319.947C1203.79 327.379 1199.97 333.694 1195.1 338.969C1190.24 344.218 1184.31 348.35 1177.34 351.339C1170.37 354.327 1162.91 355.783 1154.92 355.679C1146.94 355.783 1139.47 354.327 1132.53 351.339C1125.58 348.35 1119.68 344.218 1114.82 338.943C1109.95 333.668 1106.13 327.327 1103.4 319.973C1100.67 312.618 1099.34 304.718 1099.45 296.324C1099.34 287.93 1100.67 280.03 1103.4 272.65C1106.13 265.27 1109.93 258.929 1114.82 253.628C1119.68 248.352 1125.58 244.194 1132.53 241.18C1139.47 238.165 1146.94 236.71 1154.92 236.814V236.788ZM1128.13 326.781C1134.92 334.473 1143.89 338.345 1155.08 338.345C1166.26 338.345 1175.23 334.499 1182 326.781C1188.76 319.089 1192.14 308.876 1192.14 296.142C1192.14 283.409 1188.76 273.118 1182 265.426C1175.23 257.733 1166.26 253.861 1155.08 253.861C1143.89 253.861 1134.9 257.733 1128.13 265.452C1121.34 273.17 1117.96 283.409 1117.96 296.142C1117.96 308.876 1121.34 319.089 1128.13 326.781Z" fill="#F7F6F2"/>
<path d="M1322 238.633V353.704H1304.44L1247.67 266.985V353.704H1230.11V238.633H1247.67L1304.44 325.508V238.633H1322Z" fill="#F7F6F2"/>
</svg>
