<svg width="2960" height="290" viewBox="0 0 2960 290" fill="none" xmlns="http://www.w3.org/2000/svg">
<style>path{fill:#212121;fill-rule:evenodd}@media (prefers-color-scheme:dark){path{fill:#e1e1e1}}</style>
<path d="M106.773 3.72019C101.839 -1.24006 93.7651 -1.24006 88.8525 3.72019L8.97069 84.029C4.03681 88.9893 0 98.781 0 105.781V178.617C0 185.618 5.7028 191.372 12.6871 191.372H182.938C189.901 191.372 195.625 185.639 195.625 178.617V105.781C195.625 98.781 191.588 88.9893 186.654 84.029L106.773 3.72019Z"/>
<path d="M185.844 223.977C191.246 223.977 195.625 228.356 195.625 233.758V280.219C195.625 285.621 191.246 290 185.844 290H173.617C168.215 290 163.836 285.621 163.836 280.219V255.766H31.7891V280.219C31.7891 285.621 27.4098 290 22.0078 290H9.78125C4.37921 290 0 285.621 0 280.219V233.758C1.60801e-06 228.356 4.37922 223.977 9.78125 223.977H185.844Z"/>
<path d="M350.497 65.5C361.485 65.5 371.666 67.4792 381.04 71.4638C390.414 75.4223 398.356 80.9173 404.866 87.9228C411.376 94.9283 416.453 103.314 420.099 113.132C423.718 122.95 425.541 133.55 425.541 144.956C425.671 156.233 423.9 166.806 420.255 176.728C416.583 186.651 411.454 195.115 404.866 202.146C398.278 209.178 390.258 214.699 380.832 218.683C371.406 222.694 361.225 224.621 350.288 224.491C335.837 224.699 322.844 221.366 311.334 214.516C299.825 207.667 290.946 198.162 284.697 186C278.447 173.838 275.427 160.217 275.635 145.165C275.505 133.888 277.276 123.315 280.921 113.393C284.592 103.47 289.696 95.0064 296.258 87.9228C302.82 80.8652 310.788 75.3181 320.188 71.3336C329.588 67.349 339.691 65.3958 350.497 65.526V65.5ZM350.679 194.047C363.646 194.047 373.906 189.646 381.483 180.869C389.06 172.067 392.836 160.113 392.836 144.956C392.836 129.799 389.06 117.664 381.535 108.887C374.01 100.137 363.725 95.7616 350.679 95.7616C337.634 95.7616 327.348 100.137 319.823 108.887C312.298 117.638 308.522 129.669 308.522 144.956C308.522 160.243 312.298 172.249 319.823 180.973C327.348 189.698 337.634 194.073 350.679 194.073V194.047Z"/>
<path d="M562.115 119.07C562.115 134.487 557.454 146.883 548.158 156.285C538.862 165.686 526.207 170.4 510.167 170.4H479.728V221.939H448.663V68.2345H510.584C526.676 68.2345 539.279 72.7659 548.418 81.8288C557.558 90.8917 562.115 103.314 562.115 119.044V119.07ZM529.306 118.471C529.306 111.96 527.197 106.569 522.952 102.324C518.708 98.0794 512.589 95.97 504.569 95.97H479.728V143.342H504.569C512.641 143.342 518.786 141.05 523.004 136.466C527.223 131.883 529.306 125.893 529.306 118.497V118.471Z"/>
<path d="M680.748 221.939H584.013V68.2345H680.748V97.7669H615.052V130.555H673.405V158.056H615.052V192.693H680.748V221.939Z"/>
<path d="M842.059 68.2605V221.965H811.203L743.892 117.872V221.965H713.036V68.2605H743.892L811.203 172.562V68.2605H842.059Z"/>
<path d="M930.044 68.2605H961.108V130.398L1022.01 130.607V68.2605H1053.29V221.965H1022.01V158.316L961.108 157.9V221.965H930.044V68.2605Z"/>
<path d="M1151.04 65.5C1162.02 65.5 1172.21 67.4792 1181.58 71.4638C1190.95 75.4223 1198.9 80.9173 1205.41 87.9228C1211.91 94.9283 1216.99 103.314 1220.64 113.132C1224.26 122.95 1226.08 133.55 1226.08 144.956C1226.21 156.233 1224.44 166.806 1220.79 176.728C1217.12 186.651 1211.99 195.115 1205.41 202.146C1198.82 209.178 1190.8 214.699 1181.37 218.683C1171.95 222.694 1161.76 224.621 1150.83 224.491C1136.38 224.699 1123.38 221.366 1111.87 214.516C1100.36 207.667 1091.48 198.162 1085.24 186C1078.99 173.838 1075.97 160.217 1076.17 145.165C1076.04 133.888 1077.81 123.315 1081.46 113.393C1085.13 103.47 1090.24 95.0064 1096.8 87.9228C1103.36 80.8652 1111.33 75.3181 1120.73 71.3336C1130.13 67.349 1140.23 65.3958 1151.04 65.526V65.5ZM1151.22 194.047C1164.19 194.047 1174.44 189.646 1182.02 180.869C1189.6 172.067 1193.38 160.113 1193.38 144.956C1193.38 129.799 1189.6 117.664 1182.07 108.887C1174.55 100.137 1164.26 95.7616 1151.22 95.7616C1138.17 95.7616 1127.89 100.137 1120.36 108.887C1112.84 117.638 1109.06 129.669 1109.06 144.956C1109.06 160.243 1112.84 172.249 1120.36 180.973C1127.89 189.698 1138.17 194.073 1151.22 194.073V194.047Z"/>
<path d="M1404.29 68.2605V221.965H1373.64V137.925L1340.75 221.965H1311.33L1278.83 138.55V221.965H1249.2V68.2605H1278.83L1326.1 185.687L1373.64 68.2605H1404.29Z"/>
<path d="M1533.62 221.939H1436.89V68.2345H1533.62V97.7669H1467.93V130.555H1526.28V158.056H1467.93V192.693H1533.62V221.939Z"/>
<path d="M1644.08 90.1944V136.34H1703.17V157.417H1644.08V221.757H1620.62V68.0069H1714.32V90.1944H1644.08Z"/>
<path d="M1803.78 65.5069C1814.45 65.3681 1824.46 67.3125 1833.73 71.3056C1843.01 75.2986 1850.93 80.8194 1857.46 87.8681C1863.96 94.9167 1869.07 103.389 1872.75 113.215C1876.43 123.076 1878.2 133.597 1878.06 144.813C1878.2 156.097 1876.43 166.722 1872.75 176.618C1869.07 186.549 1863.96 194.986 1857.46 202.035C1850.96 209.049 1843.04 214.569 1833.73 218.563C1824.42 222.556 1814.45 224.5 1803.78 224.361C1793.12 224.5 1783.15 222.556 1773.87 218.563C1764.6 214.569 1756.71 209.049 1750.21 202C1743.72 194.951 1738.61 186.479 1734.96 176.653C1731.31 166.826 1729.54 156.271 1729.68 145.056C1729.54 133.84 1731.31 123.285 1734.96 113.424C1738.61 103.562 1743.68 95.0903 1750.21 88.0069C1756.71 80.9583 1764.6 75.4028 1773.87 71.375C1783.15 67.3472 1793.12 65.4028 1803.78 65.5417V65.5069ZM1768 185.75C1777.07 196.028 1789.05 201.201 1803.99 201.201C1818.93 201.201 1830.92 196.062 1839.95 185.75C1848.98 175.472 1853.5 161.826 1853.5 144.813C1853.5 127.799 1848.98 114.049 1839.95 103.771C1830.92 93.493 1818.93 88.3195 1803.99 88.3195C1789.05 88.3195 1777.03 93.493 1768 103.806C1758.93 114.118 1754.42 127.799 1754.42 144.813C1754.42 161.826 1758.93 175.472 1768 185.75Z"/>
<path d="M1926.22 67.9722V166.271C1926.29 177.972 1929.72 186.826 1936.53 192.799C1943.34 198.806 1952.31 201.792 1963.39 201.792C1974.47 201.792 1982.95 198.632 1990.04 192.347C1997.12 186.062 2000.67 177.347 2000.67 166.271V67.9722H2024.12V167.208C2024.12 176.236 2022.49 184.396 2019.26 191.722C2016.02 199.049 2011.61 205.09 2006.09 209.778C2000.53 214.5 1994.14 218.111 1986.81 220.681C1979.48 223.25 1971.69 224.5 1963.36 224.5C1955.02 224.5 1947.55 223.25 1940.32 220.785C1933.09 218.319 1926.63 214.743 1921 210.09C1915.34 205.437 1910.89 199.431 1907.63 192.035C1904.36 184.639 1902.73 176.34 1902.73 167.208V67.9722H1926.22Z"/>
<path d="M2180.91 67.9722V221.722H2157.46L2081.62 105.854V221.722H2058.17V67.9722H2081.62L2157.46 184.049V67.9722H2180.91Z"/>
<path d="M2344.79 145.021C2344.86 156.028 2342.95 166.375 2339.06 175.993C2335.16 185.646 2329.78 193.84 2322.94 200.576C2316.09 207.312 2307.86 212.59 2298.23 216.375C2288.61 220.16 2278.36 221.965 2267.38 221.757H2216.14V68.0069H2267.38C2281.84 67.7986 2295.04 70.993 2306.92 77.625C2318.8 84.2222 2328.11 93.4583 2334.85 105.299C2341.59 117.139 2344.89 130.403 2344.79 145.056V145.021ZM2319.88 145.021C2319.88 128.771 2315.05 115.576 2305.36 105.438C2295.66 95.2986 2282.95 90.1944 2267.17 90.1944H2239.8V199.951H2267.17C2283.09 199.951 2295.84 194.917 2305.46 184.812C2315.08 174.743 2319.88 161.444 2319.88 145.021Z"/>
<path d="M2447.76 184.778H2386.37L2373.03 221.757H2348.96L2404.54 68.0069H2429.77L2485.67 221.757H2460.86L2447.73 184.778H2447.76ZM2440.95 164.847L2417.29 97.8333L2393.43 164.847H2440.95Z"/>
<path d="M2590.97 90.1944H2546.33V221.757H2522.67V90.1944H2478.02V68.0069H2590.94V90.1944H2590.97Z"/>
<path d="M2612.16 221.722V67.9722H2635.82V221.722H2612.16Z"/>
<path d="M2735.91 65.5069C2746.58 65.3681 2756.59 67.3125 2765.86 71.3056C2775.17 75.2986 2783.06 80.8194 2789.59 87.8681C2796.09 94.9167 2801.19 103.389 2804.88 113.215C2808.56 123.076 2810.33 133.597 2810.19 144.813C2810.33 156.097 2808.56 166.722 2804.88 176.618C2801.19 186.549 2796.09 194.986 2789.59 202.035C2783.09 209.049 2775.17 214.569 2765.86 218.563C2756.55 222.556 2746.58 224.5 2735.91 224.361C2725.25 224.5 2715.28 222.556 2706 218.563C2696.72 214.569 2688.84 209.049 2682.34 202C2675.84 194.951 2670.74 186.479 2667.09 176.653C2663.44 166.826 2661.67 156.271 2661.81 145.056C2661.67 133.84 2663.44 123.285 2667.09 113.424C2670.74 103.562 2675.81 95.0903 2682.34 88.0069C2688.84 80.9583 2696.72 75.4028 2706 71.375C2715.28 67.3472 2725.25 65.4028 2735.91 65.5417V65.5069ZM2700.13 185.75C2709.2 196.028 2721.18 201.201 2736.12 201.201C2751.06 201.201 2763.05 196.062 2772.08 185.75C2781.11 175.472 2785.63 161.826 2785.63 144.813C2785.63 127.799 2781.11 114.049 2772.08 103.771C2763.05 93.493 2751.06 88.3195 2736.12 88.3195C2721.18 88.3195 2709.16 93.493 2700.13 103.806C2691.06 114.118 2686.55 127.799 2686.55 144.813C2686.55 161.826 2691.06 175.472 2700.13 185.75Z"/>
<path d="M2959.1 67.9722V221.722H2935.65L2859.8 105.854V221.722H2836.35V67.9722H2859.8L2935.65 184.049V67.9722H2959.1Z"/>
</svg>
