<svg width="268" height="28" viewBox="0 0 268 28" fill="none" xmlns="http://www.w3.org/2000/svg">
<path d="M0 8C0 3.58172 3.58172 0 8 0H80C84.4183 0 88 3.58172 88 8V20C88 24.4183 84.4183 28 80 28H8C3.58172 28 0 24.4183 0 20V8Z" fill="#1C1C1C"/>
<path d="M8 0.5H80C84.1421 0.5 87.5 3.85786 87.5 8V20C87.5 24.1421 84.1421 27.5 80 27.5H8C3.85786 27.5 0.5 24.1421 0.5 20V8C0.5 3.85786 3.85786 0.5 8 0.5Z" stroke="white" stroke-opacity="0.24"/>
<rect x="8" y="8" width="12" height="12" rx="3" fill="white" fill-opacity="0.24"/>
<rect x="28" y="8" width="12" height="12" rx="3" fill="#009AC7"/>
<rect x="48" y="8" width="12" height="12" rx="3" fill="white" fill-opacity="0.24"/>
<rect x="68" y="8" width="12" height="12" rx="3" fill="white" fill-opacity="0.24"/>
<path d="M109.333 16.45C108.718 17.065 107.667 16.6294 107.667 15.7596C107.667 15.2204 107.23 14.7833 106.69 14.7833H101.058C100.601 14.7833 100.228 14.4159 100.221 13.9583C100.214 13.4909 100.591 13.1083 101.058 13.1083H106.693C107.231 13.1083 107.667 12.6723 107.667 12.1345C107.667 11.2668 108.716 10.8323 109.329 11.4458L110.613 12.7296C111.287 13.4036 111.287 14.4964 110.613 15.1704L109.333 16.45Z" fill="white" fill-opacity="0.48"/>
<path d="M124 8C124 3.58172 127.582 0 132 0H204C208.418 0 212 3.58172 212 8V20C212 24.4183 208.418 28 204 28H132C127.582 28 124 24.4183 124 20V8Z" fill="#1C1C1C"/>
<path d="M132 0.5H204C208.142 0.5 211.5 3.85786 211.5 8V20C211.5 24.1421 208.142 27.5 204 27.5H132C127.858 27.5 124.5 24.1421 124.5 20V8C124.5 3.85786 127.858 0.5 132 0.5Z" stroke="white" stroke-opacity="0.24"/>
<rect x="132" y="8" width="12" height="12" rx="3" fill="white" fill-opacity="0.24"/>
<rect x="152" y="8" width="12" height="12" rx="3" fill="#009AC7"/>
<rect x="172" y="8" width="12" height="12" rx="3" fill="white" fill-opacity="0.24"/>
<rect x="192" y="8" width="12" height="12" rx="3" fill="#009AC7"/>
<path d="M237.5 12.3333C237.5 12.7936 237.127 13.1667 236.667 13.1667H223.333C222.873 13.1667 222.5 12.7936 222.5 12.3333C222.5 11.8731 222.873 11.5 223.333 11.5H236.667C237.127 11.5 237.5 11.8731 237.5 12.3333ZM237.5 15.6667C237.5 15.2064 237.127 14.8333 236.667 14.8333H223.333C222.873 14.8333 222.5 15.2064 222.5 15.6667C222.5 16.1269 222.873 16.5 223.333 16.5H236.667C237.127 16.5 237.5 16.1269 237.5 15.6667Z" fill="white" fill-opacity="0.48"/>
<path d="M257.167 16.5H253L258.833 4.83337V11.5H263L257.167 23.1667V16.5Z" fill="white" fill-opacity="0.24"/>
</svg>
