<svg width="94" height="48" viewBox="0 0 94 48" fill="none" xmlns="http://www.w3.org/2000/svg">
<path d="M0 11C0 9.34315 1.34315 8 3 8H23C24.6569 8 26 9.34315 26 11V13C26 14.6569 24.6569 16 23 16H3C1.34315 16 0 14.6569 0 13V11Z" fill="black" fill-opacity="0.12"/>
<path d="M30 11C30 9.34315 31.3431 8 33 8H91C92.6569 8 94 9.34315 94 11V13C94 14.6569 92.6569 16 91 16H33C31.3431 16 30 14.6569 30 13V11Z" fill="black" fill-opacity="0.12"/>
<path d="M0 23C0 21.3431 1.34315 20 3 20H61C62.6569 20 64 21.3431 64 23V25C64 26.6569 62.6569 28 61 28H3C1.34315 28 0 26.6569 0 25V23Z" fill="black" fill-opacity="0.12"/>
<path d="M68 23C68 21.3431 69.3431 20 71 20H91C92.6569 20 94 21.3431 94 23V25C94 26.6569 92.6569 28 91 28H71C69.3431 28 68 26.6569 68 25V23Z" fill="black" fill-opacity="0.12"/>
<path d="M0 35C0 33.3431 1.34315 32 3 32H23C24.6569 32 26 33.3431 26 35V37C26 38.6569 24.6569 40 23 40H3C1.34315 40 0 38.6569 0 37V35Z" fill="black" fill-opacity="0.12"/>
</svg>
