<svg width="94" height="64" viewBox="0 0 94 64" fill="none" xmlns="http://www.w3.org/2000/svg">
<path d="M0 8C0 3.58172 3.58172 0 8 0H86C90.4183 0 94 3.58172 94 8V56C94 60.4183 90.4183 64 86 64H8C3.58172 64 0 60.4183 0 56V8Z" fill="#1C1C1C"/>
<path d="M0.5 8C0.5 3.85786 3.85786 0.5 8 0.5H86C90.1421 0.5 93.5 3.85786 93.5 8V56C93.5 60.1421 90.1421 63.5 86 63.5H8C3.85786 63.5 0.5 60.1421 0.5 56V8Z" stroke="white" stroke-opacity="0.24"/>
<path d="M8 14C8 10.6863 10.6863 8 14 8H33C36.3137 8 39 10.6863 39 14C39 17.3137 36.3137 20 33 20H14C10.6863 20 8 17.3137 8 14Z" fill="white" fill-opacity="0.48"/>
<path d="M8 27C8 25.3431 9.34315 24 11 24H31C32.6569 24 34 25.3431 34 27V29C34 30.6569 32.6569 32 31 32H11C9.34315 32 8 30.6569 8 29V27Z" fill="white" fill-opacity="0.24"/>
<path d="M38 27C38 25.3431 39.3431 24 41 24H83C84.6569 24 86 25.3431 86 27V29C86 30.6569 84.6569 32 83 32H41C39.3431 32 38 30.6569 38 29V27Z" fill="white" fill-opacity="0.24"/>
<path d="M8 39C8 37.3431 9.34315 36 11 36H53C54.6569 36 56 37.3431 56 39V41C56 42.6569 54.6569 44 53 44H11C9.34315 44 8 42.6569 8 41V39Z" fill="white" fill-opacity="0.24"/>
<path d="M60 39C60 37.3431 61.3431 36 63 36H83C84.6569 36 86 37.3431 86 39V41C86 42.6569 84.6569 44 83 44H63C61.3431 44 60 42.6569 60 41V39Z" fill="white" fill-opacity="0.24"/>
<path d="M8 51C8 49.3431 9.34315 48 11 48H31C32.6569 48 34 49.3431 34 51V53C34 54.6569 32.6569 56 31 56H11C9.34315 56 8 54.6569 8 53V51Z" fill="white" fill-opacity="0.24"/>
</svg>
