<svg width="94" height="56" viewBox="0 0 94 56" fill="none" xmlns="http://www.w3.org/2000/svg">
<path d="M0 8C0 3.58172 3.58172 0 8 0H86C90.4183 0 94 3.58172 94 8V48C94 52.4183 90.4183 56 86 56H8C3.58172 56 0 52.4183 0 48V8Z" fill="#1C1C1C"/>
<path d="M1.34748 52.4449C0.772837 51.5866 0.359906 50.6109 0.152272 49.5613L0.642766 49.4643C0.549158 48.9911 0.5 48.5015 0.5 48V46H0V42H0.5V38H0V34H0.5V30H0V26H0.5V22H0V18H0.5V14H0V10H0.5V8C0.5 7.49847 0.549158 7.00892 0.642766 6.53574L0.152272 6.4387C0.359906 5.38915 0.772837 4.41341 1.34748 3.55508L1.76296 3.83324C2.31067 3.01513 3.01513 2.31067 3.83323 1.76296L3.55507 1.34748C4.41341 0.772837 5.38915 0.359906 6.4387 0.152272L6.53574 0.642766C7.00892 0.549158 7.49847 0.5 8 0.5H9.94999V0H13.85V0.5H17.75V0H21.65V0.5H25.55V0H29.45V0.5H33.35V0H37.25V0.5H41.15V0H45.05V0.5H48.95V0H52.85V0.5H56.75V0H60.65V0.5H64.55V0H68.45V0.5H72.35V0H76.25V0.5H80.15V0H84.05V0.5H86C86.5015 0.5 86.9911 0.549158 87.4643 0.642766L87.5613 0.152273C88.6108 0.359907 89.5866 0.772837 90.4449 1.34747L90.1668 1.76296C90.9849 2.31067 91.6893 3.01513 92.237 3.83323L92.6525 3.55507C93.2272 4.41341 93.6401 5.38915 93.8477 6.4387L93.3572 6.53574C93.4508 7.00892 93.5 7.49847 93.5 8V10H94V14H93.5V18H94V22H93.5V26H94V30H93.5V34H94V38H93.5V42H94V46H93.5V48C93.5 48.5015 93.4508 48.9911 93.3572 49.4643L93.8477 49.5613C93.6401 50.6109 93.2272 51.5866 92.6525 52.4449L92.237 52.1668C91.6893 52.9849 90.9849 53.6893 90.1668 54.237L90.4449 54.6525C89.5866 55.2272 88.6108 55.6401 87.5613 55.8477L87.4643 55.3572C86.9911 55.4508 86.5015 55.5 86 55.5H84.05V56H80.15V55.5H76.25V56H72.35V55.5H68.45V56H64.55V55.5H60.65V56H56.75V55.5H52.85V56H48.95V55.5H45.05V56H41.15V55.5H37.25V56H33.35V55.5H29.45V56H25.55V55.5H21.65V56H17.75V55.5H13.85V56H9.95V55.5H8C7.49847 55.5 7.00892 55.4508 6.53574 55.3572L6.4387 55.8477C5.38915 55.6401 4.41341 55.2272 3.55508 54.6525L3.83323 54.237C3.01513 53.6893 2.31067 52.9849 1.76296 52.1668L1.34748 52.4449Z" stroke="white" stroke-opacity="0.24" stroke-dasharray="4 4"/>
<path d="M31.5 14C31.5 10.6863 34.1863 8 37.5 8H56.5C59.8137 8 62.5 10.6863 62.5 14C62.5 17.3137 59.8137 20 56.5 20H37.5C34.1863 20 31.5 17.3137 31.5 14Z" fill="white" fill-opacity="0.48"/>
<path d="M23 27C23 25.3431 24.3431 24 26 24H68C69.6569 24 71 25.3431 71 27V29C71 30.6569 69.6569 32 68 32H26C24.3431 32 23 30.6569 23 29V27Z" fill="white" fill-opacity="0.24"/>
<path d="M9 44C9 41.7909 10.7909 40 13 40H17C19.2091 40 21 41.7909 21 44C21 46.2091 19.2091 48 17 48H13C10.7909 48 9 46.2091 9 44Z" fill="white" fill-opacity="0.48"/>
<rect x="25" y="40" width="12" height="8" rx="4" fill="white" fill-opacity="0.24"/>
<rect x="41" y="40" width="12" height="8" rx="4" fill="white" fill-opacity="0.24"/>
<rect x="57" y="40" width="12" height="8" rx="4" fill="white" fill-opacity="0.24"/>
<rect x="73" y="40" width="12" height="8" rx="4" fill="white" fill-opacity="0.24"/>
</svg>
