<svg width="94" height="72" viewBox="0 0 94 72" fill="none" xmlns="http://www.w3.org/2000/svg">
<g clip-path="url(#clip0_887_2968)">
<path d="M0 39H55V64C55 68.4183 51.4183 72 47 72H8C3.58172 72 0 68.4183 0 64V39Z" fill="white"/>
<path d="M1.34748 68.4449C0.772837 67.5866 0.359906 66.6109 0.152272 65.5613L0.642766 65.4643C0.549158 64.9911 0.5 64.5015 0.5 64V61.9167H0V57.75H0.5V53.5833H0V49.4167H0.5V45.25H0V41.0833H0.5V39.5H1.96429V39H5.89286V39.5H9.82143V39H13.75V39.5H17.6786V39H21.6071V39.5H25.5357V39H29.4643V39.5H33.3929V39H37.3214V39.5H41.25V39H45.1786V39.5H49.1071V39H53.0357V39.5H54.5V41.0833H55V45.25H54.5V49.4167H55V53.5833H54.5V57.75H55V61.9167H54.5V64C54.5 64.5015 54.4508 64.9911 54.3572 65.4643L54.8477 65.5613C54.6401 66.6109 54.2272 67.5866 53.6525 68.4449L53.237 68.1668C52.6893 68.9849 51.9849 69.6893 51.1668 70.237L51.4449 70.6525C50.5866 71.2272 49.6109 71.6401 48.5613 71.8477L48.4643 71.3572C47.9911 71.4508 47.5015 71.5 47 71.5H45.05V72H41.15V71.5H37.25V72H33.35V71.5H29.45V72H25.55V71.5H21.65V72H17.75V71.5H13.85V72H9.95V71.5H8C7.49847 71.5 7.00892 71.4508 6.53574 71.3572L6.4387 71.8477C5.38915 71.6401 4.41341 71.2272 3.55507 70.6525L3.83323 70.237C3.01513 69.6893 2.31067 68.9849 1.76296 68.1668L1.34748 68.4449Z" stroke="black" stroke-opacity="0.12" stroke-dasharray="4 4"/>
<rect x="8" y="47" width="12" height="8" rx="4" fill="black" fill-opacity="0.32"/>
<rect x="24" y="47" width="12" height="8" rx="4" fill="black" fill-opacity="0.12"/>
<rect x="8" y="59" width="12" height="8" rx="4" fill="black" fill-opacity="0.12"/>
<path d="M54 0H86C90.4183 0 94 3.58172 94 8V32C94 36.4183 90.4183 40 86 40H54V0Z" fill="white"/>
<path d="M84 39.5V40H80V39.5H76V40H72V39.5H68V40H64V39.5H60V40H56V39.5H54.5V38H54V34H54.5V30H54V26H54.5V22H54V18H54.5V14H54V10H54.5V6H54V2H54.5V0.5H56V0H60V0.5H64V0H68V0.5H72V0H76V0.5H80V0H84V0.5H86C86.5015 0.5 86.9911 0.549158 87.4643 0.642766L87.5613 0.152272C88.6109 0.359906 89.5866 0.772836 90.4449 1.34748L90.1668 1.76296C90.9849 2.31067 91.6893 3.01513 92.237 3.83323L92.6525 3.55507C93.2272 4.41341 93.6401 5.38915 93.8477 6.4387L93.3572 6.53574C93.4508 7.00892 93.5 7.49847 93.5 8V10H94V14H93.5V18H94V22H93.5V26H94V30H93.5V32C93.5 32.5015 93.4508 32.9911 93.3572 33.4643L93.8477 33.5613C93.6401 34.6109 93.2272 35.5866 92.6525 36.4449L92.237 36.1668C91.6893 36.9849 90.9849 37.6893 90.1668 38.237L90.4449 38.6525C89.5866 39.2272 88.6109 39.6401 87.5613 39.8477L87.4643 39.3572C86.9911 39.4508 86.5015 39.5 86 39.5H84Z" stroke="black" stroke-opacity="0.12" stroke-dasharray="4 4"/>
<path d="M58 28C58 30.2091 59.7909 32 62 32H66C68.2091 32 70 30.2091 70 28C70 25.7909 68.2091 24 66 24H62C59.7909 24 58 25.7909 58 28Z" fill="black" fill-opacity="0.12"/>
<path d="M74 28C74 30.2091 75.7909 32 78 32H82C84.2091 32 86 30.2091 86 28C86 25.7909 84.2091 24 82 24H78C75.7909 24 74 25.7909 74 28Z" fill="black" fill-opacity="0.12"/>
<path d="M74 16C74 18.2091 75.7909 20 78 20H82C84.2091 20 86 18.2091 86 16C86 13.7909 84.2091 12 82 12H78C75.7909 12 74 13.7909 74 16Z" fill="black" fill-opacity="0.32"/>
<path d="M0 8C0 3.58172 3.58172 0 8 0H55V40H0V8Z" fill="white"/>
<path d="M3.55507 1.34748C4.41341 0.772837 5.38915 0.359906 6.4387 0.152272L6.53574 0.642766C7.00892 0.549158 7.49847 0.5 8 0.5H9.95833V0H13.875V0.5H17.7917V0H21.7083V0.5H25.625V0H29.5417V0.5H33.4583V0H37.375V0.5H41.2917V0H45.2083V0.5H49.125V0H53.0417V0.5H54.5V2H55V6H54.5V10H55V14H54.5V18H55V22H54.5V26H55V30H54.5V34H55V38H54.5V39.5H53.0357V40H49.1071V39.5H45.1786V40H41.25V39.5H37.3214V40H33.3929V39.5H29.4643V40H25.5357V39.5H21.6071V40H17.6786V39.5H13.75V40H9.82143V39.5H5.89286V40H1.96429V39.5H0.5V38H0V34H0.5V30H0V26H0.5V22H0V18H0.5V14H0V10H0.5V8C0.5 7.49847 0.549158 7.00892 0.642766 6.53574L0.152272 6.4387C0.359906 5.38915 0.772837 4.41341 1.34748 3.55508L1.76296 3.83324C2.31067 3.01513 3.01513 2.31067 3.83323 1.76296L3.55507 1.34748Z" stroke="black" stroke-opacity="0.12" stroke-dasharray="4 4"/>
<path d="M8 14C8 10.6863 10.6863 8 14 8H33C36.3137 8 39 10.6863 39 14C39 17.3137 36.3137 20 33 20H14C10.6863 20 8 17.3137 8 14Z" fill="black" fill-opacity="0.32"/>
<path d="M8 27C8 25.3431 9.34315 24 11 24H44C45.6569 24 47 25.3431 47 27V29C47 30.6569 45.6569 32 44 32H11C9.34315 32 8 30.6569 8 29V27Z" fill="black" fill-opacity="0.12"/>
<path d="M79 48V54.5C79 58.09 76.09 61 72.5 61H66.83L69.92 64.09L68.5 65.5L63 60L68.5 54.5L69.91 55.91L66.83 59H72.5C75 59 77 57 77 54.5V48H79Z" fill="black" fill-opacity="0.32"/>
</g>
<defs>
<clipPath id="clip0_887_2968">
<rect width="94" height="72" fill="white"/>
</clipPath>
</defs>
</svg>
