<svg width="94" height="56" viewBox="0 0 94 56" fill="none" xmlns="http://www.w3.org/2000/svg">
<rect width="94" height="56" rx="8" fill="white"/>
<rect x="0.5" y="0.5" width="93" height="55" rx="7.5" stroke="black" stroke-opacity="0.12" stroke-dasharray="4 4"/>
<path d="M31.5 14C31.5 10.6863 34.1863 8 37.5 8H56.5C59.8137 8 62.5 10.6863 62.5 14C62.5 17.3137 59.8137 20 56.5 20H37.5C34.1863 20 31.5 17.3137 31.5 14Z" fill="black" fill-opacity="0.32"/>
<path d="M23 27C23 25.3431 24.3431 24 26 24H68C69.6569 24 71 25.3431 71 27V29C71 30.6569 69.6569 32 68 32H26C24.3431 32 23 30.6569 23 29V27Z" fill="black" fill-opacity="0.12"/>
<path d="M9 44C9 41.7909 10.7909 40 13 40H17C19.2091 40 21 41.7909 21 44C21 46.2091 19.2091 48 17 48H13C10.7909 48 9 46.2091 9 44Z" fill="black" fill-opacity="0.32"/>
<path d="M25 44C25 41.7909 26.7909 40 29 40H33C35.2091 40 37 41.7909 37 44C37 46.2091 35.2091 48 33 48H29C26.7909 48 25 46.2091 25 44Z" fill="black" fill-opacity="0.12"/>
<path d="M41 44C41 41.7909 42.7909 40 45 40H49C51.2091 40 53 41.7909 53 44C53 46.2091 51.2091 48 49 48H45C42.7909 48 41 46.2091 41 44Z" fill="black" fill-opacity="0.12"/>
<path d="M57 44C57 41.7909 58.7909 40 61 40H65C67.2091 40 69 41.7909 69 44C69 46.2091 67.2091 48 65 48H61C58.7909 48 57 46.2091 57 44Z" fill="black" fill-opacity="0.12"/>
<path d="M73 44C73 41.7909 74.7909 40 77 40H81C83.2091 40 85 41.7909 85 44C85 46.2091 83.2091 48 81 48H77C74.7909 48 73 46.2091 73 44Z" fill="black" fill-opacity="0.12"/>
</svg>
